<svg width="35" height="35" viewBox="0 0 35 35" fill="none" xmlns="http://www.w3.org/2000/svg">
<rect width="35" height="35" rx="3" fill="url(#paint0_linear_63_89)"/>
<path fill-rule="evenodd" clip-rule="evenodd" d="M8.19995 24C8.19995 23.2268 8.82675 22.6 9.59995 22.6H18C18.7732 22.6 19.4 23.2268 19.4 24C19.4 24.7732 18.7732 25.4 18 25.4H9.59995C8.82675 25.4 8.19995 24.7732 8.19995 24ZM8.19995 10C8.19995 9.2268 8.82675 8.60001 9.59995 8.60001H26.4C27.1732 8.60001 27.8 9.2268 27.8 10C27.8 10.7732 27.1732 11.4 26.4 11.4H9.59995C8.82675 11.4 8.19995 10.7732 8.19995 10ZM8.19995 17C8.19995 16.2268 8.82675 15.6 9.59995 15.6H26.4C27.1732 15.6 27.8 16.2268 27.8 17C27.8 17.7732 27.1732 18.4 26.4 18.4H9.59995C8.82675 18.4 8.19995 17.7732 8.19995 17Z" fill="white"/>
<defs>
<linearGradient id="paint0_linear_63_89" x1="17.5" y1="0" x2="17.5" y2="35" gradientUnits="userSpaceOnUse">
<stop stop-color="#116EFB"/>
<stop offset="1" stop-color="#02CDEB"/>
</linearGradient>
</defs>
</svg>
