<svg width="528" height="451" viewBox="0 0 528 451" fill="none" xmlns="http://www.w3.org/2000/svg">
<g opacity="0.3">
<mask id="path-1-inside-1_60_39" fill="white">
<path fill-rule="evenodd" clip-rule="evenodd" d="M400.027 448.226C471.968 408.882 511.347 348.599 527.163 271.253C506.084 298.23 483.43 314.901 458.081 321.731C501.036 270.381 512.426 217.791 505.095 167.571C496.058 187.951 486.351 205.163 472.59 216.78C475.226 169.356 468.872 128.367 456.577 91.6365C456.09 90.2052 455.603 88.7738 455.116 87.3424C455.139 89.7577 455.136 92.1817 455.116 94.5972C454.741 124.6 449.609 154.832 440.181 185.327C438.46 169.644 435.925 154.598 432.611 140.208C423.257 99.4498 407.698 63.7502 386.841 32.4098C403.644 95.4026 394.714 157.825 373.23 219.965C372.807 197.473 371.361 175.429 366.036 155.044C365.879 271.537 311.535 362.897 234.757 372.027C231.072 372.46 227.807 371.997 224.826 370.959C227.345 347.255 256.633 330.068 249.641 300.22C259.359 306.293 267.431 309.063 276.695 306.206C263.957 298.514 254.729 288.633 247.483 274.165C242.368 263.953 232.727 260.669 225.554 261.179C215.933 252.404 207.507 248.506 200.942 253.149C208.313 253.733 208.113 266.758 216.198 271.786C215.527 285.943 205.897 305.9 184.037 325.973C165.473 343.016 155.367 363.41 147.076 381.927C150.897 366.401 156.556 351.501 164.282 337.252C124.789 270.774 164.275 172.061 256.614 101.052C237.197 109.229 218.821 121.493 200.714 134.841C237.002 79.9848 281.109 34.9195 341.325 9.92979C303.746 12.4363 265.956 21.8337 227.927 39.1906C214.49 45.3156 201.025 52.466 187.513 60.6331C205.979 34.5978 226.85 12.1313 250.433 -6.42027C252.337 -7.90587 254.259 -9.38285 256.19 -10.8338C254.767 -10.3669 253.334 -9.88261 251.893 -9.38089C215.254 3.22595 178.858 23.1212 142.825 54.0663C143.673 36.0777 151.426 17.9015 162.103 -1.66927C117.804 23.0749 82.9796 64.1018 68.3609 129.434C58.359 105.161 57.8063 77.0392 66.3914 43.898C14.6219 103.481 -9.27079 171.427 3.29234 252.468C21.9036 264.877 41.1189 273.601 63.1678 280.539C43.2698 279.751 25.6321 274.426 5.60186 264.716C10.4461 281.854 16.983 298.419 25.6988 314.262C43.2374 314.687 59.9494 316.523 75.7995 319.666C61.0741 319.828 45.5174 320.62 31.3184 322.969C38.468 337.281 47.9085 350.688 58.7433 363.072C62.6319 361.699 66.2952 360.475 69.9161 359.425C78.8943 356.795 87.6263 355.148 99.0089 354.55C85.9074 358.588 75.0924 362.433 65.4648 368.446C64.9622 368.761 64.4596 369.076 63.9659 369.417L64.5711 370.257C72.2284 380.77 84.6651 389.072 90.4509 399.376C100.289 392.19 110.053 385.682 122.756 380.516C111.706 387.213 101.795 395.25 93.5919 405.279C98.7691 415.63 102.361 431.435 104.735 451.381C110.931 436.01 119.496 422.652 129.338 410.357C97.693 469.302 108.227 526.928 87.8274 576.978L78.2446 600.488L91.0728 578.579C118.365 531.93 170.507 505.23 198.052 444.262C194.291 459.535 188.875 474.469 180.463 488.747C197.728 478.513 212.457 471.748 223.83 469.542C226.816 456.939 227.165 444.183 225.739 431.33C229.376 444.538 230.152 456.246 230.425 468.443C242.141 466.774 256.287 471.567 269.281 471.266L270.316 471.235C270.277 470.653 270.23 470.045 270.166 469.472C269.071 458.191 265.535 447.242 260.786 434.396C267.236 443.794 271.242 451.725 274.617 460.451C275.978 463.981 277.244 467.615 278.52 471.537C294.941 472.601 311.324 471.936 327.015 468.894C320.241 456.196 311.421 443.377 302.573 431.584C314.72 442.276 326.354 454.405 337.344 468.057C355.22 465.335 372.344 460.444 388.892 453.862C368.999 443.874 354.051 433.141 341.311 417.803C360.232 431.08 378.846 441.023 400.018 448.243L400.027 448.226ZM95.7041 307.161C82.8655 285.602 73.2468 259.98 71.5565 230.734C80.0357 246.266 89.2738 259.291 98.7719 269.283C87.3746 228.578 88.7771 187.172 102.501 147.882C104.517 159.185 107.601 168.589 111.598 176.539C115.265 154.245 123.93 132.859 138.869 111.948C139.211 123.876 140.945 137.335 143.312 147.62C160.444 121.035 184.102 94.9413 210.38 74.7528C226.493 62.3688 243.593 52.2046 260.767 45.498C233.626 63.8745 209.862 88.335 190.057 115.94C166.293 149.063 148.202 186.695 136.726 223.759C135.595 206.44 139.708 193.18 144.785 175.546C131.874 195.205 125.464 221.256 123.606 250.613C122.383 269.803 123.125 290.417 125.236 311.598C117.528 305.716 111.207 300.279 103.232 291.905L102.584 291.239L103.017 292.341C111.641 314.613 124.938 338.542 141.051 360.72C125.949 347.616 109.061 329.604 95.6955 307.178L95.7041 307.161ZM375.742 380.827C351.503 397.279 325.308 405.251 300.396 408.161C274.441 411.206 249.871 408.762 230.284 404.75C257.706 404.053 284.768 400.038 307.709 393.341L308.847 393.014L307.924 392.905C296.426 391.671 288.265 389.961 278.908 387.423C297.002 376.212 313.796 364.251 328.298 351.613C350.467 332.277 367.241 311.341 374.988 289.134C364.082 303.892 356.061 315.223 341.628 324.863C364.07 293.232 382.929 255.978 394.758 216.966C404.617 184.454 409.563 150.729 407.643 117.992C412.769 135.701 415.106 155.457 415.081 175.779C415.046 208.916 408.741 243.55 398.039 273.33C407.615 268.96 419.378 262.139 429.052 255.153C421.528 279.723 409.845 299.62 394.383 316.093C403.115 314.446 412.455 311.172 422.661 305.878C399.837 340.656 367.83 366.961 328.599 382.707C342.334 384.157 358.284 383.581 375.751 380.853L375.742 380.827Z"/>
</mask>
<path fill-rule="evenodd" clip-rule="evenodd" d="M400.027 448.226C471.968 408.882 511.347 348.599 527.163 271.253C506.084 298.23 483.43 314.901 458.081 321.731C501.036 270.381 512.426 217.791 505.095 167.571C496.058 187.951 486.351 205.163 472.59 216.78C475.226 169.356 468.872 128.367 456.577 91.6365C456.09 90.2052 455.603 88.7738 455.116 87.3424C455.139 89.7577 455.136 92.1817 455.116 94.5972C454.741 124.6 449.609 154.832 440.181 185.327C438.46 169.644 435.925 154.598 432.611 140.208C423.257 99.4498 407.698 63.7502 386.841 32.4098C403.644 95.4026 394.714 157.825 373.23 219.965C372.807 197.473 371.361 175.429 366.036 155.044C365.879 271.537 311.535 362.897 234.757 372.027C231.072 372.46 227.807 371.997 224.826 370.959C227.345 347.255 256.633 330.068 249.641 300.22C259.359 306.293 267.431 309.063 276.695 306.206C263.957 298.514 254.729 288.633 247.483 274.165C242.368 263.953 232.727 260.669 225.554 261.179C215.933 252.404 207.507 248.506 200.942 253.149C208.313 253.733 208.113 266.758 216.198 271.786C215.527 285.943 205.897 305.9 184.037 325.973C165.473 343.016 155.367 363.41 147.076 381.927C150.897 366.401 156.556 351.501 164.282 337.252C124.789 270.774 164.275 172.061 256.614 101.052C237.197 109.229 218.821 121.493 200.714 134.841C237.002 79.9848 281.109 34.9195 341.325 9.92979C303.746 12.4363 265.956 21.8337 227.927 39.1906C214.49 45.3156 201.025 52.466 187.513 60.6331C205.979 34.5978 226.85 12.1313 250.433 -6.42027C252.337 -7.90587 254.259 -9.38285 256.19 -10.8338C254.767 -10.3669 253.334 -9.88261 251.893 -9.38089C215.254 3.22595 178.858 23.1212 142.825 54.0663C143.673 36.0777 151.426 17.9015 162.103 -1.66927C117.804 23.0749 82.9796 64.1018 68.3609 129.434C58.359 105.161 57.8063 77.0392 66.3914 43.898C14.6219 103.481 -9.27079 171.427 3.29234 252.468C21.9036 264.877 41.1189 273.601 63.1678 280.539C43.2698 279.751 25.6321 274.426 5.60186 264.716C10.4461 281.854 16.983 298.419 25.6988 314.262C43.2374 314.687 59.9494 316.523 75.7995 319.666C61.0741 319.828 45.5174 320.62 31.3184 322.969C38.468 337.281 47.9085 350.688 58.7433 363.072C62.6319 361.699 66.2952 360.475 69.9161 359.425C78.8943 356.795 87.6263 355.148 99.0089 354.55C85.9074 358.588 75.0924 362.433 65.4648 368.446C64.9622 368.761 64.4596 369.076 63.9659 369.417L64.5711 370.257C72.2284 380.77 84.6651 389.072 90.4509 399.376C100.289 392.19 110.053 385.682 122.756 380.516C111.706 387.213 101.795 395.25 93.5919 405.279C98.7691 415.63 102.361 431.435 104.735 451.381C110.931 436.01 119.496 422.652 129.338 410.357C97.693 469.302 108.227 526.928 87.8274 576.978L78.2446 600.488L91.0728 578.579C118.365 531.93 170.507 505.23 198.052 444.262C194.291 459.535 188.875 474.469 180.463 488.747C197.728 478.513 212.457 471.748 223.83 469.542C226.816 456.939 227.165 444.183 225.739 431.33C229.376 444.538 230.152 456.246 230.425 468.443C242.141 466.774 256.287 471.567 269.281 471.266L270.316 471.235C270.277 470.653 270.23 470.045 270.166 469.472C269.071 458.191 265.535 447.242 260.786 434.396C267.236 443.794 271.242 451.725 274.617 460.451C275.978 463.981 277.244 467.615 278.52 471.537C294.941 472.601 311.324 471.936 327.015 468.894C320.241 456.196 311.421 443.377 302.573 431.584C314.72 442.276 326.354 454.405 337.344 468.057C355.22 465.335 372.344 460.444 388.892 453.862C368.999 443.874 354.051 433.141 341.311 417.803C360.232 431.08 378.846 441.023 400.018 448.243L400.027 448.226ZM95.7041 307.161C82.8655 285.602 73.2468 259.98 71.5565 230.734C80.0357 246.266 89.2738 259.291 98.7719 269.283C87.3746 228.578 88.7771 187.172 102.501 147.882C104.517 159.185 107.601 168.589 111.598 176.539C115.265 154.245 123.93 132.859 138.869 111.948C139.211 123.876 140.945 137.335 143.312 147.62C160.444 121.035 184.102 94.9413 210.38 74.7528C226.493 62.3688 243.593 52.2046 260.767 45.498C233.626 63.8745 209.862 88.335 190.057 115.94C166.293 149.063 148.202 186.695 136.726 223.759C135.595 206.44 139.708 193.18 144.785 175.546C131.874 195.205 125.464 221.256 123.606 250.613C122.383 269.803 123.125 290.417 125.236 311.598C117.528 305.716 111.207 300.279 103.232 291.905L102.584 291.239L103.017 292.341C111.641 314.613 124.938 338.542 141.051 360.72C125.949 347.616 109.061 329.604 95.6955 307.178L95.7041 307.161ZM375.742 380.827C351.503 397.279 325.308 405.251 300.396 408.161C274.441 411.206 249.871 408.762 230.284 404.75C257.706 404.053 284.768 400.038 307.709 393.341L308.847 393.014L307.924 392.905C296.426 391.671 288.265 389.961 278.908 387.423C297.002 376.212 313.796 364.251 328.298 351.613C350.467 332.277 367.241 311.341 374.988 289.134C364.082 303.892 356.061 315.223 341.628 324.863C364.07 293.232 382.929 255.978 394.758 216.966C404.617 184.454 409.563 150.729 407.643 117.992C412.769 135.701 415.106 155.457 415.081 175.779C415.046 208.916 408.741 243.55 398.039 273.33C407.615 268.96 419.378 262.139 429.052 255.153C421.528 279.723 409.845 299.62 394.383 316.093C403.115 314.446 412.455 311.172 422.661 305.878C399.837 340.656 367.83 366.961 328.599 382.707C342.334 384.157 358.284 383.581 375.751 380.853L375.742 380.827Z" fill="url(#paint0_linear_60_39)" fill-opacity="0.4" stroke="white" stroke-opacity="0.7" stroke-width="2" mask="url(#path-1-inside-1_60_39)"/>
</g>
<defs>
<linearGradient id="paint0_linear_60_39" x1="361.651" y1="36.8067" x2="122.902" y2="494.605" gradientUnits="userSpaceOnUse">
<stop stop-color="#1558FF"/>
<stop offset="1" stop-color="#00DCE9"/>
</linearGradient>
</defs>
</svg>
