<svg width="173" height="34" viewBox="0 0 173 34" fill="none" xmlns="http://www.w3.org/2000/svg">
<path fill-rule="evenodd" clip-rule="evenodd" d="M25.6964 19.3196C28.1757 15.7873 28.6304 12.025 27.5756 8.00607C27.209 9.77021 26.528 11.0846 25.4906 11.9974C26.3221 8.57333 25.635 5.82594 24.1194 3.62639C24.1675 4.79874 24.1102 5.83719 23.7313 6.70597C22.7513 4.40625 21.4968 2.61963 20.061 1.17234C20.0047 1.11613 19.9484 1.05991 19.8921 1.0037C19.9494 1.11715 20.0057 1.23162 20.061 1.3461C20.742 2.7709 21.2039 4.31733 21.4691 5.97619C21.0226 5.27606 20.5526 4.62498 20.061 4.02297C18.6704 2.31709 17.1046 0.994499 15.3903 0.0010221C17.6504 2.58283 18.6827 5.73702 19.1158 9.17024C18.5721 8.1185 17.9904 7.11174 17.2643 6.27362C19.9699 11.7756 19.5326 17.3531 16.1215 19.5721C15.9576 19.6784 15.7928 19.7326 15.6279 19.753C15.1947 18.5756 16.1768 17.0823 15.1517 15.8363C15.7518 15.8966 16.1973 15.8394 16.568 15.4888C15.7876 15.4224 15.122 15.171 14.4431 14.6568C13.9638 14.294 13.4323 14.3635 13.1056 14.5546C12.4472 14.3645 11.9587 14.3768 11.757 14.7488C12.1184 14.6047 12.4123 15.2241 12.9111 15.2732C13.2091 15.957 13.2193 17.1232 12.6551 18.5796C12.1758 19.8164 12.1737 21.0143 12.2137 22.0813C12.0324 21.2596 11.9525 20.4245 11.9853 19.5721C8.57315 17.3542 8.13793 11.7756 10.8425 6.27362C10.1164 7.11174 9.53474 8.1185 8.99097 9.17024C9.42619 5.736 10.4584 2.58181 12.7185 0C11.0032 0.993477 9.43848 2.31709 8.04781 4.02194C7.55626 4.62396 7.08724 5.27503 6.63973 5.97517C6.90496 4.31631 7.36681 2.76988 8.04781 1.34508C8.10311 1.2306 8.15943 1.11613 8.21678 1.00268C8.16045 1.05787 8.10413 1.11408 8.04781 1.17132C6.61208 2.61963 5.35761 4.40625 4.37758 6.70597C3.99868 5.83719 3.94133 4.79874 3.98946 3.62639C2.47488 5.82594 1.78671 8.57333 2.61825 11.9974C1.58088 11.0846 0.899876 9.77021 0.533263 8.00607C-0.522542 12.0239 -0.0678596 15.7873 2.41241 19.3196C3.57984 19.4719 4.68992 19.4362 5.89216 19.2501C4.93467 19.6764 3.9782 19.8358 2.80667 19.844C3.43442 20.54 4.12873 21.1696 4.90907 21.7144C5.74675 21.326 6.57828 21.0235 7.39958 20.8027C6.70834 21.1533 5.99252 21.5529 5.37706 21.9945C6.04782 22.5035 6.80562 22.9164 7.60541 23.2486C7.75698 23.0932 7.90137 22.9501 8.04781 22.8162C8.41033 22.483 8.78411 22.202 9.3074 21.9086C8.78308 22.4043 8.3622 22.8377 8.04781 23.3457C8.03142 23.3723 8.01504 23.3988 7.99968 23.4264L8.04781 23.452C8.65405 23.7698 9.43438 23.8721 9.94744 24.2237C10.2444 23.6554 10.5537 23.1208 11.0329 22.5812C10.6674 23.1545 10.3868 23.7647 10.2332 24.4291C10.7186 24.7971 11.2562 25.4594 11.8327 26.3455C11.7672 25.4757 11.8604 24.6458 12.0386 23.8363C11.9177 27.3554 13.7569 29.8298 13.9597 32.6672L14.0549 34L14.1502 32.6672C14.3519 29.8298 16.1911 27.3554 16.0713 23.8363C16.2495 24.6448 16.3417 25.4757 16.2771 26.3455C16.8537 25.4604 17.3913 24.7981 17.8767 24.4291C17.7241 23.7647 17.4436 23.1545 17.0769 22.5812C17.5562 23.1198 17.8655 23.6544 18.1624 24.2237C18.6765 23.8721 19.4558 23.7688 20.0621 23.452L20.1102 23.4264C20.0948 23.3998 20.0785 23.3723 20.0621 23.3467C19.7477 22.8397 19.3258 22.4054 18.8025 21.9096C19.3258 22.203 19.6996 22.4841 20.0621 22.8173C20.2085 22.9522 20.3529 23.0942 20.5045 23.2496C21.3043 22.9174 22.0621 22.5045 22.7318 21.9955C22.1163 21.5539 21.4015 21.1543 20.7093 20.8037C21.5316 21.0255 22.3631 21.327 23.1998 21.7154C23.9801 21.1707 24.6744 20.541 25.3022 19.845C24.1307 19.8368 23.1752 19.6784 22.2167 19.2512C23.4189 19.4372 24.529 19.473 25.6964 19.3207V19.3196ZM8.04781 19.7489C6.93978 19.0304 5.88909 18.0451 5.12822 16.7041C5.89012 17.2397 6.62949 17.6393 7.31049 17.8897C5.82458 16.2339 4.92648 14.247 4.6592 12.073C5.01762 12.5595 5.38218 12.9316 5.75596 13.2136C5.40983 12.0761 5.32074 10.8649 5.53886 9.53002C5.83277 10.085 6.22806 10.6799 6.57931 11.1102C6.76876 9.45643 7.27772 7.67389 8.04781 6.10906C8.5199 5.14932 9.0903 4.27134 9.74468 3.55485C8.89163 5.05426 8.33967 6.76218 8.04781 8.52632C7.69758 10.6431 7.72011 12.8406 8.04166 14.8572C7.58493 14.0661 7.47024 13.3445 7.29922 12.3939C7.14766 13.6225 7.45181 15.0013 8.04781 16.4302C8.43695 17.3644 8.95205 18.32 9.54498 19.2706C9.04422 19.1725 8.61923 19.0631 8.04781 18.8536L8.00173 18.8372L8.04781 18.8791C8.97356 19.7295 10.1584 20.5492 11.4354 21.2207C10.4175 20.954 9.2009 20.4971 8.04781 19.7499V19.7489ZM22.9806 16.7041C22.2198 18.0451 21.1691 19.0314 20.061 19.7489C18.9069 20.4971 17.6903 20.954 16.6724 21.2207C17.9505 20.5492 19.1343 19.7295 20.061 18.8791L20.1071 18.8372L20.061 18.8536C19.4896 19.0631 19.0646 19.1725 18.5639 19.2706C19.1568 18.32 19.6709 17.3644 20.061 16.4302C20.657 15.0013 20.9612 13.6225 20.8096 12.3939C20.6386 13.3445 20.5239 14.0661 20.0672 14.8572C20.3898 12.8416 20.4123 10.6441 20.0621 8.52734C19.7702 6.7632 19.2182 5.05631 18.3652 3.55587C19.0196 4.27236 19.59 5.15034 20.0621 6.11009C20.8322 7.67491 21.3411 9.45643 21.5295 11.1112C21.8798 10.6819 22.2761 10.086 22.57 9.53104C22.7871 10.8659 22.699 12.0771 22.3529 13.2147C22.7267 12.9336 23.0912 12.5616 23.4497 12.074C23.1824 14.247 22.2843 16.2339 20.7994 17.8908C21.4814 17.6393 22.2208 17.2407 22.9817 16.7051L22.9806 16.7041Z" fill="url(#paint0_linear_49_3)"/>
<path d="M35.5082 20.76C36.5682 20.64 37.0282 20.26 37.0282 19.38V8.08C37.0282 7.18 36.5682 6.8 35.5082 6.68V6.44H41.6282C44.4482 6.44 46.2682 7.8 46.2682 10.14C46.2682 12.5 44.2282 14 40.2482 14H39.0282V19.38C39.0282 20.28 39.5282 20.66 41.0082 20.76V21H35.5082V20.76ZM39.0282 13.64H40.1082C42.8882 13.64 44.0682 12.78 44.0682 10.32C44.0682 8.02 42.8282 6.78 41.2882 6.78H40.5482C39.5282 6.78 39.0282 7.16 39.0282 8.08V13.64ZM53.7024 15.18C53.7024 12.44 53.0424 11.82 51.6624 11.82C50.7824 11.82 49.8824 12.28 49.5024 13.06V19.68C49.5024 20.2 50.0024 20.66 50.8824 20.76V21H46.3824V20.76C47.2424 20.64 47.7024 20.18 47.7024 19.68V7.62C47.7024 7.12 47.4024 6.76 46.3824 6.58V6.34L49.3224 5.38L49.4224 5.48V12.78C50.0424 11.52 51.3224 10.8 52.4624 10.8C54.3824 10.8 55.5024 11.74 55.5024 14.5V19.68C55.5024 20.2 56.0024 20.66 56.8824 20.76V21H52.3824V20.76C53.2424 20.64 53.7024 20.18 53.7024 19.68V15.18ZM61.6326 21.2C59.0926 21.2 57.0926 19.08 57.0926 16C57.0926 12.56 58.9526 10.8 61.5726 10.8C63.8326 10.8 65.3126 12.4 65.3126 14.54L65.2326 14.66H59.0726C59.0526 14.92 59.0526 15.18 59.0526 15.46C59.0526 18.4 60.3926 20.14 62.5126 20.14C63.6326 20.14 64.6326 19.5 65.1726 18.76L65.3926 18.92C64.5926 20.42 63.3526 21.2 61.6326 21.2ZM59.0926 14.32H63.4526C63.4326 12.18 62.6126 11.1 61.4126 11.1C60.0326 11.1 59.2926 12.2 59.0926 14.32ZM70.6365 21.2C68.0965 21.2 66.0965 19.08 66.0965 16C66.0965 12.56 67.9565 10.8 70.5765 10.8C72.8365 10.8 74.3165 12.4 74.3165 14.54L74.2365 14.66H68.0765C68.0565 14.92 68.0565 15.18 68.0565 15.46C68.0565 18.4 69.3965 20.14 71.5165 20.14C72.6365 20.14 73.6365 19.5 74.1765 18.76L74.3965 18.92C73.5965 20.42 72.3565 21.2 70.6365 21.2ZM68.0965 14.32H72.4565C72.4365 12.18 71.6165 11.1 70.4165 11.1C69.0365 11.1 68.2965 12.2 68.0965 14.32ZM82.2804 14.98C82.3004 12.44 81.4604 11.82 80.1404 11.82C79.2804 11.82 78.2804 12.36 77.9204 13.16V19.68C77.9204 20.2 78.4204 20.66 79.3004 20.76V21H74.8004V20.76C75.6604 20.64 76.1204 20.18 76.1204 19.68V13.48C76.1204 12.58 75.7004 12.04 74.8004 12.04V11.8L77.6604 10.76L77.8804 10.9V12.7C78.4804 11.56 79.7004 10.8 80.9404 10.8C82.8004 10.8 84.1004 11.74 84.0804 14.5L84.0404 19.76C84.1004 20.24 84.5804 20.66 85.4204 20.76V21H80.9204V20.76C81.7804 20.64 82.2404 20.18 82.2404 19.68L82.2804 14.98ZM85.7183 20.76C86.5783 20.64 87.0383 20.18 87.0383 19.68V13.38C87.0383 12.88 86.7383 12.4 85.7183 12.34V12.1L88.6183 10.76L88.8383 10.9V19.68C88.8383 20.2 89.3383 20.66 90.2183 20.76V21H85.7183V20.76ZM86.6583 8C86.6583 7.36 87.1983 6.84 87.8183 6.84C88.4583 6.84 88.9783 7.36 88.9783 8C88.9783 8.64 88.4583 9.16 87.8183 9.16C87.1983 9.16 86.6583 8.64 86.6583 8ZM95.563 20.74C96.703 20.62 96.823 20.18 96.483 19.62L94.763 16.72C94.143 17.62 93.543 18.5 93.123 19.36C92.743 20.12 93.123 20.62 94.023 20.74V21H90.523V20.76C91.263 20.66 91.983 20.22 92.503 19.52C93.183 18.56 93.863 17.46 94.543 16.36L92.083 12.22C91.783 11.7 91.203 11.32 90.803 11.24V11H95.243V11.26C94.283 11.38 94.003 11.82 94.403 12.48L95.863 14.94C96.383 14.16 96.883 13.4 97.263 12.64C97.643 11.88 97.223 11.38 96.463 11.26V11H99.543V11.24C99.083 11.34 98.403 11.78 97.883 12.48C97.263 13.32 96.663 14.3 96.063 15.28L98.503 19.42C98.963 20.18 99.623 20.66 100.023 20.76V21H95.563V20.74ZM104.336 20.76C105.396 20.64 105.856 20.26 105.856 19.38V8.08C105.856 7.18 105.396 6.8 104.336 6.68V6.44H110.456C113.276 6.44 115.096 7.8 115.096 10.14C115.096 12.5 113.056 14 109.076 14H107.856V19.38C107.856 20.28 108.356 20.66 109.836 20.76V21H104.336V20.76ZM107.856 13.64H108.936C111.716 13.64 112.896 12.78 112.896 10.32C112.896 8.02 111.656 6.78 110.116 6.78H109.376C108.356 6.78 107.856 7.16 107.856 8.08V13.64ZM115.406 20.76C116.266 20.64 116.726 20.18 116.726 19.68V13.48C116.726 12.58 116.306 12.04 115.406 12.04V11.8L118.266 10.76L118.486 10.9V13.06C119.406 11.84 120.626 10.8 121.626 10.8C122.386 10.8 123.006 11.22 123.006 11.96C123.006 12.5 122.606 12.88 122.026 12.88C121.366 12.88 121.166 12.38 120.226 12.38C119.666 12.38 119.046 12.82 118.526 13.46V19.68C118.526 20.2 119.026 20.66 120.306 20.76V21H115.406V20.76ZM127.571 21.2C124.671 21.2 122.991 19.14 122.991 16.1C122.991 12.9 124.671 10.8 127.551 10.8C130.411 10.8 132.051 12.86 132.051 15.96C132.051 19.08 130.411 21.2 127.571 21.2ZM124.951 15.92C124.951 18.82 125.851 20.9 127.731 20.9C129.331 20.9 130.091 18.92 130.091 16.2C130.091 13.18 129.231 11.1 127.431 11.1C125.751 11.1 124.951 13.08 124.951 15.92ZM135.894 21.2C134.474 21.2 133.414 20.48 133.414 17.9V11.34H132.454V11.14C133.494 10.42 134.414 9.46 134.994 8.42L135.214 8.48V11.02C135.854 11.02 137.254 10.98 137.854 10.98V11.42C137.394 11.42 135.914 11.34 135.214 11.34V17.22C135.214 19.52 135.814 20.16 136.834 20.16C137.314 20.16 137.754 19.92 137.934 19.74L138.114 19.92C137.714 20.64 136.894 21.2 135.894 21.2ZM142.903 21.2C140.003 21.2 138.323 19.14 138.323 16.1C138.323 12.9 140.003 10.8 142.883 10.8C145.743 10.8 147.383 12.86 147.383 15.96C147.383 19.08 145.743 21.2 142.903 21.2ZM140.283 15.92C140.283 18.82 141.183 20.9 143.063 20.9C144.663 20.9 145.423 18.92 145.423 16.2C145.423 13.18 144.563 11.1 142.763 11.1C141.083 11.1 140.283 13.08 140.283 15.92ZM152.802 21.2C150.282 21.2 148.382 19.3 148.382 15.8C148.382 12.58 150.402 10.8 152.762 10.8C155.182 10.8 156.482 11.9 156.482 13C156.482 13.6 156.102 14 155.562 14C154.062 14 154.742 11.1 152.642 11.1C151.262 11.1 150.342 12.68 150.342 15.46C150.342 18.62 151.822 20.14 153.622 20.14C154.422 20.14 155.442 19.86 156.262 18.8L156.442 18.92C155.722 20.36 154.502 21.2 152.802 21.2ZM161.77 21.2C158.87 21.2 157.19 19.14 157.19 16.1C157.19 12.9 158.87 10.8 161.75 10.8C164.61 10.8 166.25 12.86 166.25 15.96C166.25 19.08 164.61 21.2 161.77 21.2ZM159.15 15.92C159.15 18.82 160.05 20.9 161.93 20.9C163.53 20.9 164.29 18.92 164.29 16.2C164.29 13.18 163.43 11.1 161.63 11.1C159.95 11.1 159.15 13.08 159.15 15.92ZM166.558 20.76C167.418 20.64 167.878 20.18 167.878 19.68V7.68C167.878 6.98 167.478 6.62 166.558 6.58V6.34L169.458 5.38L169.678 5.52V19.68C169.678 20.2 170.178 20.66 171.058 20.76V21H166.558V20.76Z" fill="white"/>
<defs>
<linearGradient id="paint0_linear_49_3" x1="14.3038" y1="0.79519" x2="13.6968" y2="27.9625" gradientUnits="userSpaceOnUse">
<stop stop-color="#1558FF"/>
<stop offset="1" stop-color="#00DCE9"/>
</linearGradient>
</defs>
</svg>
