<svg width="174" height="34" viewBox="0 0 174 34" fill="none" xmlns="http://www.w3.org/2000/svg">
<path fill-rule="evenodd" clip-rule="evenodd" d="M25.6964 19.3196C28.1757 15.7873 28.6304 12.025 27.5756 8.00607C27.209 9.77021 26.528 11.0846 25.4906 11.9974C26.3221 8.57333 25.635 5.82594 24.1194 3.62639C24.1675 4.79874 24.1102 5.83719 23.7313 6.70597C22.7513 4.40625 21.4968 2.61963 20.061 1.17234C20.0047 1.11613 19.9484 1.05991 19.8921 1.0037C19.9494 1.11715 20.0057 1.23162 20.061 1.3461C20.742 2.7709 21.2039 4.31733 21.4691 5.97619C21.0226 5.27606 20.5526 4.62498 20.061 4.02297C18.6704 2.31709 17.1046 0.994499 15.3903 0.0010221C17.6504 2.58283 18.6827 5.73702 19.1158 9.17024C18.5721 8.1185 17.9904 7.11174 17.2643 6.27362C19.9699 11.7756 19.5326 17.3531 16.1215 19.5721C15.9576 19.6784 15.7928 19.7326 15.6279 19.753C15.1947 18.5756 16.1768 17.0823 15.1517 15.8363C15.7518 15.8966 16.1973 15.8394 16.568 15.4888C15.7876 15.4224 15.122 15.171 14.4431 14.6568C13.9638 14.294 13.4323 14.3635 13.1056 14.5546C12.4472 14.3645 11.9587 14.3768 11.757 14.7488C12.1184 14.6047 12.4123 15.2241 12.9111 15.2732C13.2091 15.957 13.2193 17.1232 12.6551 18.5796C12.1758 19.8164 12.1737 21.0143 12.2137 22.0813C12.0324 21.2596 11.9525 20.4245 11.9853 19.5721C8.57315 17.3542 8.13793 11.7756 10.8425 6.27362C10.1164 7.11174 9.53474 8.1185 8.99097 9.17024C9.42619 5.736 10.4584 2.58181 12.7185 0C11.0032 0.993477 9.43848 2.31709 8.04781 4.02194C7.55626 4.62396 7.08724 5.27503 6.63973 5.97517C6.90496 4.31631 7.36681 2.76988 8.04781 1.34508C8.10311 1.2306 8.15943 1.11613 8.21678 1.00268C8.16045 1.05787 8.10413 1.11408 8.04781 1.17132C6.61208 2.61963 5.35761 4.40625 4.37758 6.70597C3.99868 5.83719 3.94133 4.79874 3.98946 3.62639C2.47488 5.82594 1.78671 8.57333 2.61825 11.9974C1.58088 11.0846 0.899876 9.77021 0.533263 8.00607C-0.522542 12.0239 -0.0678596 15.7873 2.41241 19.3196C3.57984 19.4719 4.68992 19.4362 5.89216 19.2501C4.93467 19.6764 3.9782 19.8358 2.80667 19.844C3.43442 20.54 4.12873 21.1696 4.90907 21.7144C5.74675 21.326 6.57828 21.0235 7.39958 20.8027C6.70834 21.1533 5.99252 21.5529 5.37706 21.9945C6.04782 22.5035 6.80562 22.9164 7.60541 23.2486C7.75698 23.0932 7.90137 22.9501 8.04781 22.8162C8.41033 22.483 8.78411 22.202 9.3074 21.9086C8.78308 22.4043 8.3622 22.8377 8.04781 23.3457C8.03142 23.3723 8.01504 23.3988 7.99968 23.4264L8.04781 23.452C8.65405 23.7698 9.43438 23.8721 9.94744 24.2237C10.2444 23.6554 10.5537 23.1208 11.0329 22.5812C10.6674 23.1545 10.3868 23.7647 10.2332 24.4291C10.7186 24.7971 11.2562 25.4594 11.8327 26.3455C11.7672 25.4757 11.8604 24.6458 12.0386 23.8363C11.9177 27.3554 13.7569 29.8298 13.9597 32.6672L14.0549 34L14.1502 32.6672C14.3519 29.8298 16.1911 27.3554 16.0713 23.8363C16.2495 24.6448 16.3417 25.4757 16.2771 26.3455C16.8537 25.4604 17.3913 24.7981 17.8767 24.4291C17.7241 23.7647 17.4436 23.1545 17.0769 22.5812C17.5562 23.1198 17.8655 23.6544 18.1624 24.2237C18.6765 23.8721 19.4558 23.7688 20.0621 23.452L20.1102 23.4264C20.0948 23.3998 20.0785 23.3723 20.0621 23.3467C19.7477 22.8397 19.3258 22.4054 18.8025 21.9096C19.3258 22.203 19.6996 22.4841 20.0621 22.8173C20.2085 22.9522 20.3529 23.0942 20.5045 23.2496C21.3043 22.9174 22.0621 22.5045 22.7318 21.9955C22.1163 21.5539 21.4015 21.1543 20.7093 20.8037C21.5316 21.0255 22.3631 21.327 23.1998 21.7154C23.9801 21.1707 24.6744 20.541 25.3022 19.845C24.1307 19.8368 23.1752 19.6784 22.2167 19.2512C23.4189 19.4372 24.529 19.473 25.6964 19.3207V19.3196ZM8.04781 19.7489C6.93978 19.0304 5.88909 18.0451 5.12822 16.7041C5.89012 17.2397 6.62949 17.6393 7.31049 17.8897C5.82458 16.2339 4.92648 14.247 4.6592 12.073C5.01762 12.5595 5.38218 12.9316 5.75596 13.2136C5.40983 12.0761 5.32074 10.8649 5.53886 9.53002C5.83277 10.085 6.22806 10.6799 6.57931 11.1102C6.76876 9.45643 7.27772 7.67389 8.04781 6.10906C8.5199 5.14932 9.0903 4.27134 9.74468 3.55485C8.89163 5.05426 8.33967 6.76218 8.04781 8.52632C7.69758 10.6431 7.72011 12.8406 8.04166 14.8572C7.58493 14.0661 7.47024 13.3445 7.29922 12.3939C7.14766 13.6225 7.45181 15.0013 8.04781 16.4302C8.43695 17.3644 8.95205 18.32 9.54498 19.2706C9.04422 19.1725 8.61923 19.0631 8.04781 18.8536L8.00173 18.8372L8.04781 18.8791C8.97356 19.7295 10.1584 20.5492 11.4354 21.2207C10.4175 20.954 9.2009 20.4971 8.04781 19.7499V19.7489ZM22.9806 16.7041C22.2198 18.0451 21.1691 19.0314 20.061 19.7489C18.9069 20.4971 17.6903 20.954 16.6724 21.2207C17.9505 20.5492 19.1343 19.7295 20.061 18.8791L20.1071 18.8372L20.061 18.8536C19.4896 19.0631 19.0646 19.1725 18.5639 19.2706C19.1568 18.32 19.6709 17.3644 20.061 16.4302C20.657 15.0013 20.9612 13.6225 20.8096 12.3939C20.6386 13.3445 20.5239 14.0661 20.0672 14.8572C20.3898 12.8416 20.4123 10.6441 20.0621 8.52734C19.7702 6.7632 19.2182 5.05631 18.3652 3.55587C19.0196 4.27236 19.59 5.15034 20.0621 6.11009C20.8322 7.67491 21.3411 9.45643 21.5295 11.1112C21.8798 10.6819 22.2761 10.086 22.57 9.53104C22.7871 10.8659 22.699 12.0771 22.3529 13.2147C22.7267 12.9336 23.0912 12.5616 23.4497 12.074C23.1824 14.247 22.2843 16.2339 20.7994 17.8908C21.4814 17.6393 22.2208 17.2407 22.9817 16.7051L22.9806 16.7041Z" fill="url(#paint0_linear_49_3)"/>
<path d="M35.5082 20.76C36.5682 20.64 37.0282 20.26 37.0282 19.38V8.08C37.0282 7.18 36.5682 6.8 35.5082 6.68V6.44H41.6282C44.4482 6.44 46.2682 7.8 46.2682 10.14C46.2682 12.5 44.2282 14 40.2482 14H39.0282V19.38C39.0282 20.28 39.5282 20.66 41.0082 20.76V21H35.5082V20.76ZM39.0282 13.64H40.1082C42.8882 13.64 44.0682 12.78 44.0682 10.32C44.0682 8.02 42.8282 6.78 41.2882 6.78H40.5482C39.5282 6.78 39.0282 7.16 39.0282 8.08V13.64ZM53.7024 15.18C53.7024 12.44 53.0424 11.82 51.6624 11.82C50.7824 11.82 49.8824 12.28 49.5024 13.06V19.68C49.5024 20.2 50.0024 20.66 50.8824 20.76V21H46.3824V20.76C47.2424 20.64 47.7024 20.18 47.7024 19.68V7.62C47.7024 7.12 47.4024 6.76 46.3824 6.58V6.34L49.3224 5.38L49.4224 5.48V12.78C50.0424 11.52 51.3224 10.8 52.4624 10.8C54.3824 10.8 55.5024 11.74 55.5024 14.5V19.68C55.5024 20.2 56.0024 20.66 56.8824 20.76V21H52.3824V20.76C53.2424 20.64 53.7024 20.18 53.7024 19.68V15.18ZM61.6726 21.2C58.7726 21.2 57.0926 19.14 57.0926 16.1C57.0926 12.9 58.7726 10.8 61.6526 10.8C64.5126 10.8 66.1526 12.86 66.1526 15.96C66.1526 19.08 64.5126 21.2 61.6726 21.2ZM59.0526 15.92C59.0526 18.82 59.9526 20.9 61.8326 20.9C63.4326 20.9 64.1926 18.92 64.1926 16.2C64.1926 13.18 63.3326 11.1 61.5326 11.1C59.8526 11.1 59.0526 13.08 59.0526 15.92ZM71.6912 21.2C69.1512 21.2 67.1512 19.08 67.1512 16C67.1512 12.56 69.0112 10.8 71.6312 10.8C73.8912 10.8 75.3712 12.4 75.3712 14.54L75.2912 14.66H69.1312C69.1112 14.92 69.1112 15.18 69.1112 15.46C69.1112 18.4 70.4512 20.14 72.5712 20.14C73.6912 20.14 74.6912 19.5 75.2312 18.76L75.4512 18.92C74.6512 20.42 73.4112 21.2 71.6912 21.2ZM69.1512 14.32H73.5112C73.4912 12.18 72.6712 11.1 71.4712 11.1C70.0912 11.1 69.3512 12.2 69.1512 14.32ZM83.3351 14.98C83.3551 12.44 82.5151 11.82 81.1951 11.82C80.3351 11.82 79.3351 12.36 78.9751 13.16V19.68C78.9751 20.2 79.4751 20.66 80.3551 20.76V21H75.8551V20.76C76.7151 20.64 77.1751 20.18 77.1751 19.68V13.48C77.1751 12.58 76.7551 12.04 75.8551 12.04V11.8L78.7151 10.76L78.9351 10.9V12.7C79.5351 11.56 80.7551 10.8 81.9951 10.8C83.8551 10.8 85.1551 11.74 85.1351 14.5L85.0951 19.76C85.1551 20.24 85.6351 20.66 86.4751 20.76V21H81.9751V20.76C82.8351 20.64 83.2951 20.18 83.2951 19.68L83.3351 14.98ZM86.773 20.76C87.633 20.64 88.093 20.18 88.093 19.68V13.38C88.093 12.88 87.793 12.4 86.773 12.34V12.1L89.673 10.76L89.893 10.9V19.68C89.893 20.2 90.393 20.66 91.273 20.76V21H86.773V20.76ZM87.713 8C87.713 7.36 88.253 6.84 88.873 6.84C89.513 6.84 90.033 7.36 90.033 8C90.033 8.64 89.513 9.16 88.873 9.16C88.253 9.16 87.713 8.64 87.713 8ZM96.6177 20.74C97.7577 20.62 97.8777 20.18 97.5377 19.62L95.8177 16.72C95.1977 17.62 94.5977 18.5 94.1777 19.36C93.7977 20.12 94.1777 20.62 95.0777 20.74V21H91.5777V20.76C92.3177 20.66 93.0377 20.22 93.5577 19.52C94.2377 18.56 94.9177 17.46 95.5977 16.36L93.1377 12.22C92.8377 11.7 92.2577 11.32 91.8577 11.24V11H96.2977V11.26C95.3377 11.38 95.0577 11.82 95.4577 12.48L96.9177 14.94C97.4377 14.16 97.9377 13.4 98.3177 12.64C98.6977 11.88 98.2777 11.38 97.5177 11.26V11H100.598V11.24C100.138 11.34 99.4577 11.78 98.9377 12.48C98.3177 13.32 97.7177 14.3 97.1177 15.28L99.5577 19.42C100.018 20.18 100.678 20.66 101.078 20.76V21H96.6177V20.74ZM105.391 20.76C106.451 20.64 106.911 20.26 106.911 19.38V8.08C106.911 7.18 106.451 6.8 105.391 6.68V6.44H111.511C114.331 6.44 116.151 7.8 116.151 10.14C116.151 12.5 114.111 14 110.131 14H108.911V19.38C108.911 20.28 109.411 20.66 110.891 20.76V21H105.391V20.76ZM108.911 13.64H109.991C112.771 13.64 113.951 12.78 113.951 10.32C113.951 8.02 112.711 6.78 111.171 6.78H110.431C109.411 6.78 108.911 7.16 108.911 8.08V13.64ZM116.461 20.76C117.321 20.64 117.781 20.18 117.781 19.68V13.48C117.781 12.58 117.361 12.04 116.461 12.04V11.8L119.321 10.76L119.541 10.9V13.06C120.461 11.84 121.681 10.8 122.681 10.8C123.441 10.8 124.061 11.22 124.061 11.96C124.061 12.5 123.661 12.88 123.081 12.88C122.421 12.88 122.221 12.38 121.281 12.38C120.721 12.38 120.101 12.82 119.581 13.46V19.68C119.581 20.2 120.081 20.66 121.361 20.76V21H116.461V20.76ZM128.626 21.2C125.726 21.2 124.046 19.14 124.046 16.1C124.046 12.9 125.726 10.8 128.606 10.8C131.466 10.8 133.106 12.86 133.106 15.96C133.106 19.08 131.466 21.2 128.626 21.2ZM126.006 15.92C126.006 18.82 126.906 20.9 128.786 20.9C130.386 20.9 131.146 18.92 131.146 16.2C131.146 13.18 130.286 11.1 128.486 11.1C126.806 11.1 126.006 13.08 126.006 15.92ZM136.949 21.2C135.529 21.2 134.469 20.48 134.469 17.9V11.34H133.509V11.14C134.549 10.42 135.469 9.46 136.049 8.42L136.269 8.48V11.02C136.909 11.02 138.309 10.98 138.909 10.98V11.42C138.449 11.42 136.969 11.34 136.269 11.34V17.22C136.269 19.52 136.869 20.16 137.889 20.16C138.369 20.16 138.809 19.92 138.989 19.74L139.169 19.92C138.769 20.64 137.949 21.2 136.949 21.2ZM143.958 21.2C141.058 21.2 139.378 19.14 139.378 16.1C139.378 12.9 141.058 10.8 143.938 10.8C146.798 10.8 148.438 12.86 148.438 15.96C148.438 19.08 146.798 21.2 143.958 21.2ZM141.338 15.92C141.338 18.82 142.238 20.9 144.118 20.9C145.718 20.9 146.478 18.92 146.478 16.2C146.478 13.18 145.618 11.1 143.818 11.1C142.138 11.1 141.338 13.08 141.338 15.92ZM153.856 21.2C151.336 21.2 149.436 19.3 149.436 15.8C149.436 12.58 151.456 10.8 153.816 10.8C156.236 10.8 157.536 11.9 157.536 13C157.536 13.6 157.156 14 156.616 14C155.116 14 155.796 11.1 153.696 11.1C152.316 11.1 151.396 12.68 151.396 15.46C151.396 18.62 152.876 20.14 154.676 20.14C155.476 20.14 156.496 19.86 157.316 18.8L157.496 18.92C156.776 20.36 155.556 21.2 153.856 21.2ZM162.825 21.2C159.925 21.2 158.245 19.14 158.245 16.1C158.245 12.9 159.925 10.8 162.805 10.8C165.665 10.8 167.305 12.86 167.305 15.96C167.305 19.08 165.665 21.2 162.825 21.2ZM160.205 15.92C160.205 18.82 161.105 20.9 162.985 20.9C164.585 20.9 165.345 18.92 165.345 16.2C165.345 13.18 164.485 11.1 162.685 11.1C161.005 11.1 160.205 13.08 160.205 15.92ZM167.613 20.76C168.473 20.64 168.933 20.18 168.933 19.68V7.68C168.933 6.98 168.533 6.62 167.613 6.58V6.34L170.513 5.38L170.733 5.52V19.68C170.733 20.2 171.233 20.66 172.113 20.76V21H167.613V20.76Z" fill="white"/>
<defs>
<linearGradient id="paint0_linear_49_3" x1="14.3038" y1="0.79519" x2="13.6968" y2="27.9625" gradientUnits="userSpaceOnUse">
<stop stop-color="#1558FF"/>
<stop offset="1" stop-color="#00DCE9"/>
</linearGradient>
</defs>
</svg>
