<svg width="1197" height="484" viewBox="0 0 1197 484" fill="none" xmlns="http://www.w3.org/2000/svg">
<path d="M122.739 483.187V435.542H122.221C72.504 435.542 22.2691 421.559 5.17886 406.022L2.56418e-06 308.66H6.73252C27.4479 380.646 70.9503 421.041 122.739 424.666V257.907C69.3967 225.28 9.32195 195.761 9.32195 140.347C9.32195 88.5582 47.6455 47.6453 117.56 47.6453H121.703V-0.000223627H133.097V48.1631C171.42 50.2347 201.458 60.0745 219.066 75.6111L224.245 154.848H217.512C198.35 99.4338 167.277 68.3607 133.097 59.5566V200.422C185.921 232.53 247.031 266.193 247.031 330.411C247.031 385.825 215.958 431.399 134.132 435.024V483.187H122.739ZM58.0032 118.078C58.0032 149.669 86.4869 171.42 121.703 193.689V57.4851C118.596 56.9672 115.489 56.9672 112.381 56.9672C81.3081 56.9672 58.0032 84.933 58.0032 118.078ZM134.132 425.184C177.635 423.63 202.493 398.772 202.493 355.269C202.493 315.392 171.42 288.98 134.132 265.157V425.184ZM252.388 424.148C279.836 421.041 291.748 411.201 291.748 388.414V95.8086C291.748 72.5038 279.836 62.6639 252.388 59.5566V53.342H410.861C483.883 53.342 531.011 88.5582 531.011 149.151C531.011 210.261 478.187 249.103 375.127 249.103H343.536V388.414C343.536 411.719 356.483 421.559 394.807 424.148V430.363H252.388V424.148ZM343.536 239.781H371.502C443.488 239.781 474.043 217.512 474.043 153.812C474.043 94.255 441.935 62.1461 402.057 62.1461H382.896C356.483 62.1461 343.536 71.9859 343.536 95.8086V239.781ZM523.489 424.148C550.937 421.041 562.849 411.201 562.849 388.414V95.2907C562.849 72.5038 550.937 62.6639 523.489 59.5566V53.342H655.55V59.5566C627.584 62.1461 614.637 71.9859 614.637 95.2907V225.28H767.414V95.2907C767.414 72.5038 755.502 62.6639 728.054 59.5566V53.342H860.115V59.5566C832.149 62.1461 819.202 71.9859 819.202 95.2907V388.414C819.202 411.719 832.149 421.559 860.115 424.148V430.363H728.054V424.148C755.502 421.041 767.414 411.201 767.414 388.414V235.638H614.637V388.414C614.637 411.719 627.584 421.559 655.55 424.148V430.363H523.489V424.148ZM1038.49 423.63C1091.83 421.559 1090.28 409.129 1082.51 394.629L1008.97 255.835C985.148 294.677 949.414 354.751 940.092 378.574C930.252 402.397 932.324 420.523 989.291 423.63V430.363H854.123V424.148C882.089 421.559 904.876 404.986 919.894 383.235C937.503 357.859 979.969 284.319 1003.27 245.478L918.341 99.9517C901.768 71.468 882.607 61.6282 861.373 59.5566V53.342H1006.9V60.0745C968.576 63.1818 967.022 74.5753 976.344 91.6655L1039.01 207.672C1059.21 172.456 1085.1 126.364 1092.87 105.648C1101.67 81.3078 1097.53 63.1818 1069.05 60.0745V53.342H1169V59.5566C1147.76 62.1461 1127.57 78.7184 1112.55 100.47C1097.01 122.221 1066.46 180.224 1044.7 218.03L1144.14 389.45C1155.53 409.129 1173.14 421.559 1196.45 424.148V430.363H1038.49V423.63Z" fill="url(#paint0_linear_63_26)"/>
<defs>
<linearGradient id="paint0_linear_63_26" x1="595.142" y1="-30.6372" x2="595.642" y2="451.4" gradientUnits="userSpaceOnUse">
<stop stop-color="white"/>
<stop offset="1" stop-color="#000510" stop-opacity="0"/>
</linearGradient>
</defs>
</svg>
