<svg width="146" height="146" viewBox="0 0 146 146" fill="none" xmlns="http://www.w3.org/2000/svg">
<g clip-path="url(#clip0_63_5)">
<rect y="34.2081" width="116.675" height="116.675" rx="58.3377" transform="rotate(-17.049 0 34.2081)" fill="white"/>
<circle cx="72.952" cy="72.7384" r="53.0851" transform="rotate(-17.049 72.952 72.7384)" stroke="black" stroke-width="2.23516"/>
<path d="M85.3158 112.377C85.1174 112.459 85.0494 112.558 85.109 112.767L85.6999 114.837C85.7606 115.049 85.8706 115.097 86.0822 115.062L86.101 115.128L84.7586 115.511C84.1357 115.689 83.7085 115.526 83.5793 115.074C83.449 114.617 83.7995 114.203 84.5616 113.986L84.7319 113.937L84.4513 112.955C84.3906 112.742 84.2729 112.696 83.9811 112.758L83.9623 112.692L85.297 112.311L85.3158 112.377ZM84.7606 114.038L84.6174 114.079C84.2035 114.197 84.1631 114.48 84.2658 114.84C84.395 115.293 84.6022 115.447 84.8498 115.376L84.9039 115.361C85.0239 115.327 85.1051 115.245 85.0477 115.044L84.7606 114.038ZM81.8463 114.559C81.918 114.901 82.0379 115.015 82.2226 114.974C82.3365 114.949 82.4256 114.867 82.4806 114.781L82.192 113.477C82.1607 113.335 82.0425 113.267 81.9046 113.277L81.8898 113.21L82.97 112.971L82.9848 113.037C82.8604 113.09 82.7901 113.2 82.8205 113.338L83.3074 115.537C83.3404 115.687 83.415 115.744 83.5839 115.744L83.5986 115.811L82.8634 116.213L82.8067 116.18L82.5155 114.864C82.4132 115.072 82.2009 115.267 81.9692 115.318C81.6078 115.398 81.3286 115.217 81.2387 114.792L81.0083 113.714C80.9678 113.587 80.8561 113.529 80.7261 113.537L80.7113 113.471L81.7916 113.232L81.8064 113.298C81.6819 113.351 81.6116 113.461 81.642 113.598L81.8463 114.559ZM79.7339 113.581C80.2374 113.494 80.7858 113.832 80.8934 114.455C81.0153 115.16 80.6276 115.587 80.1162 115.675C79.6682 115.752 79.2685 115.495 79.1849 115.011L79.2077 114.954L80.2623 114.772L80.2472 114.685C80.1396 114.062 79.8119 113.89 79.5224 113.94C79.352 113.97 79.188 114.084 79.1028 114.229L79.0258 114.185C79.1332 113.885 79.3613 113.645 79.7339 113.581ZM80.2727 114.856L79.7732 114.942C79.8715 115.464 80.0073 115.612 80.1342 115.59C80.269 115.567 80.3486 115.39 80.2727 114.856ZM77.8365 113.853C78.3438 113.792 78.8744 114.157 78.9506 114.784C79.0369 115.495 78.6283 115.901 78.1131 115.964C77.6617 116.018 77.2755 115.741 77.2163 115.254L77.2419 115.198L78.3043 115.069L78.2937 114.981C78.2175 114.354 77.8988 114.166 77.6072 114.201C77.4355 114.222 77.266 114.328 77.1736 114.469L77.099 114.421C77.2213 114.127 77.4611 113.899 77.8365 113.853ZM78.3105 115.153L77.8073 115.214C77.8793 115.741 78.0075 115.895 78.1353 115.88C78.2711 115.863 78.3595 115.69 78.3105 115.153ZM75.5737 115.417C75.5943 115.767 75.6962 115.897 75.8848 115.884C76.0132 115.875 76.1243 115.79 76.1906 115.701L76.0988 114.396C76.0887 114.252 75.9818 114.167 75.844 114.156L75.8392 114.088L76.9429 114.01L76.9477 114.079C76.8169 114.112 76.7311 114.211 76.741 114.351L76.822 115.503C76.8375 115.724 76.9294 115.826 77.0699 115.816L77.0747 115.885L76.2879 116.109L76.2326 116.069L76.2128 115.788C76.0859 115.99 75.8323 116.17 75.5835 116.187C75.2102 116.213 74.966 116.009 74.9384 115.559L74.869 114.459C74.8477 114.327 74.7457 114.254 74.6159 114.243L74.6111 114.174L75.7148 114.097L75.7196 114.165C75.5888 114.198 75.503 114.297 75.5129 114.438L75.5737 115.417ZM74.5628 114.242C74.4306 114.269 74.34 114.364 74.3429 114.504L74.3671 115.663C74.3703 115.816 74.4322 115.887 74.5978 115.92L74.5993 115.988L73.7836 116.238L73.7344 116.195L73.6994 114.518C73.6963 114.373 73.5938 114.283 73.4567 114.265L73.4552 114.197L74.5614 114.174L74.5628 114.242ZM74.4769 116.872C74.4812 117.077 74.3117 117.25 74.1106 117.254C73.9055 117.258 73.733 117.093 73.7287 116.887C73.7244 116.682 73.8898 116.51 74.095 116.506C74.2961 116.501 74.4726 116.667 74.4769 116.872ZM72.2844 114.248C72.1272 114.266 72.0892 114.398 72.1718 114.532L72.4906 115.043C72.5768 114.924 72.6301 114.852 72.6794 114.777C72.8315 114.545 72.779 114.267 72.5459 114.252L72.5468 114.183L73.4077 114.195L73.4068 114.264C73.2859 114.278 73.0508 114.403 72.8581 114.662C72.7104 114.861 72.6528 114.953 72.5378 115.125L72.8842 115.681C73.0888 116.013 73.2321 116.124 73.3365 116.138L73.3356 116.206L72.1046 116.189L72.1055 116.121C72.2868 116.103 72.3207 115.979 72.2224 115.816L72.0177 115.488L71.9478 115.595C71.7751 115.862 71.7839 116.1 71.9888 116.119L71.9879 116.187L71.2316 116.177L71.2325 116.108C71.3414 116.094 71.5765 115.968 71.7692 115.709C71.8635 115.586 71.9209 115.506 71.9744 115.419L71.455 114.578C71.3172 114.355 71.1899 114.253 71.0695 114.231L71.0704 114.163L72.2853 114.18L72.2844 114.248ZM70.1846 114.176C69.9701 114.18 69.8706 114.247 69.8498 114.463L69.6433 116.606C69.6221 116.826 69.7069 116.911 69.9168 116.956L69.9103 117.024L68.5206 116.89C67.8759 116.828 67.5377 116.52 67.5828 116.052C67.6284 115.579 68.1058 115.322 68.8948 115.398L69.071 115.415L69.169 114.398C69.1902 114.178 69.0974 114.092 68.803 114.043L68.8096 113.975L70.1912 114.108L70.1846 114.176ZM69.0609 115.519L68.9128 115.505C68.4843 115.464 68.343 115.713 68.3071 116.085C68.262 116.554 68.3985 116.773 68.6548 116.798L68.7109 116.803C68.835 116.815 68.9405 116.769 68.9606 116.56L69.0609 115.519ZM67.7355 113.936C67.6006 113.941 67.4957 114.019 67.4754 114.159L67.309 115.301C67.2771 115.52 67.345 115.64 67.4844 115.66L67.4745 115.728L66.6579 115.78L66.6125 115.728L66.6728 115.314C66.4468 115.554 66.2262 115.729 65.9714 115.692C65.7683 115.662 65.6703 115.526 65.6952 115.355C65.7213 115.176 65.8649 115.083 66.0083 115.104C66.1954 115.131 66.1989 115.302 66.3581 115.325C66.4378 115.337 66.5534 115.297 66.6708 115.217L66.8384 114.066C66.8593 113.923 66.7731 113.817 66.5212 113.76L66.5311 113.692L67.7454 113.869L67.7355 113.936ZM65.0322 113.368C65.6602 113.49 65.9387 113.954 65.8172 114.578C65.6903 115.23 65.2534 115.579 64.6294 115.457C64.0094 115.337 63.7411 114.862 63.8649 114.227C63.9902 113.583 64.4162 113.248 65.0322 113.368ZM65.1468 114.484C65.2637 113.884 65.2262 113.487 64.9853 113.44C64.7957 113.404 64.6475 113.744 64.5376 114.308C64.4176 114.924 64.4434 115.339 64.6685 115.383C64.8739 115.423 65.0338 115.065 65.1468 114.484ZM63.2427 112.991C63.6152 113.076 63.8085 113.331 63.7031 113.79L63.4122 115.056L63.6004 115.1L63.5869 115.158C63.3553 115.196 62.9873 115.343 62.7115 115.519L62.6569 115.469L62.7659 114.995C62.5925 114.959 62.3367 114.904 62.2465 114.884L62.2708 114.778C62.3414 114.794 62.6062 114.863 62.7857 114.908L63.0361 113.818C63.1279 113.418 63.0687 113.281 62.8883 113.239C62.7942 113.218 62.6971 113.245 62.6173 113.305L62.5684 113.248C62.7054 113.065 62.9721 112.928 63.2427 112.991ZM61.7074 112.581C62.3228 112.755 62.5613 113.241 62.3878 113.853C62.2066 114.491 61.7418 114.803 61.1303 114.629C60.5226 114.457 60.2952 113.962 60.472 113.338C60.651 112.707 61.1036 112.409 61.7074 112.581ZM61.7277 113.703C61.8946 113.115 61.8906 112.716 61.6545 112.649C61.4687 112.597 61.2924 112.923 61.1354 113.476C60.9641 114.08 60.9549 114.496 61.1755 114.558C61.3768 114.616 61.5662 114.272 61.7277 113.703ZM59.6621 111.96C60.1429 112.121 60.4988 112.642 60.2758 113.31C60.0629 113.948 59.5145 114.142 58.9993 113.97C58.5376 113.816 58.3482 113.519 58.4272 113.282C58.4731 113.145 58.58 113.066 58.7326 113.117C59.118 113.246 58.7271 113.794 59.0477 113.901C59.2538 113.97 59.4282 113.714 59.6003 113.199C59.7953 112.615 59.6263 112.27 59.3172 112.167C59.1569 112.114 59.0169 112.126 58.8629 112.219L58.8146 112.16C59.0438 111.932 59.3377 111.852 59.6621 111.96ZM57.9031 111.303C58.4992 111.535 58.6905 112.041 58.4597 112.634C58.2187 113.252 57.7265 113.518 57.1342 113.287C56.5456 113.058 56.3662 112.543 56.6013 111.94C56.8394 111.329 57.3183 111.075 57.9031 111.303ZM57.8168 112.422C58.0388 111.852 58.0726 111.455 57.8439 111.366C57.664 111.296 57.4575 111.604 57.2486 112.14C57.0208 112.725 56.9722 113.138 57.1859 113.221C57.3808 113.297 57.602 112.973 57.8168 112.422ZM56.8966 111.036C56.7655 111.005 56.6434 111.052 56.5865 111.181L55.6754 113.241C55.6136 113.381 55.6395 113.472 55.7758 113.571L55.7481 113.634L54.9031 113.516L54.8768 113.456L55.9977 110.92C56.0563 110.788 56.0017 110.662 55.8847 110.589L55.9124 110.526L56.9243 110.974L56.8966 111.036ZM54.3198 109.839C54.1205 109.76 54.0028 109.783 53.9002 109.975L52.8839 111.872C52.7795 112.067 52.8249 112.178 53.0015 112.3L52.9692 112.361L51.7385 111.702C51.1675 111.396 50.974 110.982 51.1962 110.567C51.4204 110.148 51.9601 110.095 52.6588 110.469L52.8148 110.553L53.2973 109.652C53.4018 109.457 53.3492 109.342 53.0963 109.184L53.1285 109.123L54.3521 109.779L54.3198 109.839ZM52.7654 110.645L52.6342 110.575C52.2547 110.371 52.0284 110.547 51.8517 110.877C51.6295 111.292 51.6709 111.547 51.8979 111.668L51.9475 111.695C52.0575 111.754 52.1727 111.752 52.2715 111.567L52.7654 110.645ZM50.3122 109C50.1266 109.297 50.1345 109.462 50.2959 109.56C50.3956 109.621 50.5163 109.624 50.6158 109.6L51.3108 108.459C51.3862 108.336 51.3484 108.204 51.2421 108.116L51.2777 108.057L52.2225 108.633L52.1869 108.691C52.061 108.643 51.9338 108.674 51.8606 108.794L50.6883 110.718C50.6087 110.849 50.6226 110.942 50.7446 111.059L50.709 111.117L49.9004 110.898L49.8822 110.835L50.5835 109.684C50.3656 109.763 50.0772 109.757 49.8745 109.634C49.5584 109.441 49.4827 109.117 49.7122 108.748L50.2926 107.811C50.3514 107.691 50.3108 107.572 50.2114 107.488L50.2469 107.429L51.1918 108.005L51.1562 108.063C51.0303 108.015 50.9031 108.046 50.8298 108.166L50.3122 109ZM49.4696 106.827C49.8913 107.116 50.049 107.74 49.6924 108.261C49.2881 108.853 48.7129 108.888 48.2846 108.595C47.9093 108.338 47.8021 107.875 48.0793 107.47L48.1354 107.445L49.0187 108.049L49.0686 107.976C49.4253 107.455 49.3101 107.103 49.0676 106.937C48.9249 106.84 48.7277 106.807 48.5654 106.852L48.5407 106.767C48.827 106.626 49.1574 106.614 49.4696 106.827ZM48.9676 108.117L48.5492 107.83C48.256 108.273 48.2503 108.474 48.3566 108.547C48.4695 108.624 48.65 108.553 48.9676 108.117ZM47.9164 105.704C48.3244 106.011 48.4532 106.642 48.0729 107.147C47.6418 107.719 47.0656 107.728 46.6512 107.415C46.2882 107.142 46.2025 106.674 46.498 106.282L46.5552 106.259L47.4097 106.904L47.463 106.833C47.8433 106.329 47.7444 105.972 47.5099 105.795C47.3717 105.691 47.1763 105.649 47.012 105.687L46.9913 105.601C47.2838 105.474 47.6145 105.476 47.9164 105.704ZM47.3556 106.969L46.9508 106.664C46.6376 107.093 46.6226 107.293 46.7254 107.37C46.8346 107.453 47.0182 107.39 47.3556 106.969ZM45.202 105.265C44.9749 105.531 44.9585 105.696 45.1038 105.817C45.2027 105.899 45.3413 105.915 45.451 105.896L46.2877 104.891C46.3804 104.78 46.3623 104.645 46.27 104.542L46.3138 104.489L47.1641 105.197L47.1203 105.25C47.0028 105.183 46.8725 105.195 46.7824 105.303L46.0435 106.191C45.9019 106.361 45.8974 106.498 46.0056 106.588L45.9618 106.641L45.2384 106.258L45.2265 106.191L45.4067 105.975C45.175 106.033 44.8679 105.987 44.6762 105.827C44.3887 105.588 44.3541 105.271 44.6455 104.927L45.357 104.085C45.4327 103.975 45.41 103.852 45.3239 103.754L45.3677 103.701L46.218 104.409L46.1742 104.462C46.0567 104.395 45.9264 104.407 45.8363 104.516L45.202 105.265ZM45.2859 103.716C45.1722 103.644 45.0415 103.648 44.9455 103.751L44.1563 104.6C44.0521 104.712 44.047 104.806 44.1431 104.945L44.0965 104.995L43.3366 104.606L43.3314 104.541L44.4743 103.313C44.5729 103.207 44.5623 103.071 44.4759 102.963L44.5225 102.913L45.3325 103.666L45.2859 103.716ZM43.3932 105.544C43.2534 105.694 43.0117 105.7 42.8644 105.563C42.7142 105.423 42.7056 105.184 42.8453 105.034C42.9851 104.884 43.2239 104.875 43.3741 105.015C43.5214 105.152 43.533 105.394 43.3932 105.544ZM43.6447 102.136C43.5191 102.04 43.3999 102.109 43.3663 102.262L43.2405 102.852C43.3855 102.826 43.4737 102.811 43.5618 102.791C43.8318 102.73 43.9874 102.493 43.8303 102.32L43.8785 102.272L44.4895 102.878L44.4414 102.927C44.3444 102.853 44.088 102.78 43.7696 102.833C43.5251 102.873 43.4199 102.899 43.2181 102.943L43.0811 103.583C42.9972 103.965 43.0234 104.144 43.0892 104.226L43.041 104.275L42.1672 103.408L42.2154 103.359C42.3581 103.472 42.4688 103.407 42.5108 103.221L42.5918 102.843L42.4668 102.872C42.157 102.944 41.9983 103.121 42.1326 103.277L42.0844 103.325L41.5476 102.793L41.5958 102.744C41.6842 102.809 41.9405 102.882 42.2589 102.83C42.4125 102.806 42.5091 102.789 42.6086 102.763L42.8184 101.798C42.8743 101.542 42.8538 101.38 42.7823 101.28L42.8305 101.232L43.6929 102.088L43.6447 102.136ZM42.1799 100.63C42.0231 100.483 41.9048 100.463 41.7397 100.604L40.1032 102.002C39.935 102.146 39.937 102.266 40.0572 102.444L40.0052 102.488L39.0983 101.427C38.6775 100.934 38.6476 100.478 39.0055 100.172C39.3664 99.864 39.8886 100.011 40.4034 100.613L40.5184 100.748L41.2954 100.084C41.4636 99.9401 41.4564 99.814 41.2782 99.5746L41.3302 99.5302L42.2319 100.585L42.1799 100.63ZM40.4389 100.816L40.3422 100.703C40.0625 100.375 39.7879 100.456 39.5035 100.699C39.1456 101.005 39.0915 101.258 39.2588 101.454L39.2954 101.496C39.3764 101.591 39.4846 101.631 39.6436 101.495L40.4389 100.816ZM40.5843 98.7565C40.4838 98.6664 40.354 98.65 40.2427 98.7363L39.3304 99.444C39.1555 99.5797 39.1215 99.713 39.2078 99.8243L39.1538 99.8662L38.5295 99.3372L38.5324 99.2687L38.863 99.0122C38.5341 99.0281 38.2536 99.0012 38.0958 98.7978C37.97 98.6357 37.9939 98.4695 38.1306 98.3635C38.2736 98.2525 38.4416 98.2852 38.5303 98.3996C38.6462 98.549 38.53 98.6748 38.6286 98.802C38.678 98.8656 38.789 98.9169 38.9295 98.9403L39.8482 98.2276C39.9626 98.1389 39.9741 98.0027 39.8321 97.7869L39.8862 97.745L40.6383 98.7145L40.5843 98.7565ZM39.032 96.4714C39.3991 96.9953 39.2774 97.5227 38.7569 97.8875C38.2132 98.2685 37.6562 98.2167 37.2914 97.6962C36.9288 97.1789 37.065 96.6511 37.5955 96.2794C38.1325 95.903 38.6718 95.9574 39.032 96.4714ZM38.3393 97.3548C38.8401 97.0038 39.0884 96.6922 38.9476 96.4912C38.8368 96.3331 38.4941 96.475 38.0229 96.8052C37.5089 97.1654 37.2395 97.4819 37.3711 97.6697C37.4912 97.8411 37.855 97.6942 38.3393 97.3548ZM38.0081 94.9562C38.2157 95.2771 38.1767 95.5946 37.7815 95.8503L36.6904 96.5562L36.7953 96.7184L36.7447 96.7512C36.5523 96.6168 36.1861 96.4656 35.8656 96.3998L35.8611 96.3261L36.2698 96.0617C36.1703 95.9152 36.0248 95.6978 35.9746 95.6201L36.0658 95.5611C36.1051 95.6219 36.247 95.856 36.3441 96.0136L37.2832 95.406C37.6278 95.1831 37.681 95.0432 37.5805 94.8878C37.528 94.8068 37.4394 94.7587 37.3403 94.7462L37.3446 94.6715C37.5706 94.6355 37.8573 94.7231 38.0081 94.9562ZM37.1872 93.5951C37.5099 94.1475 37.3451 94.6631 36.7962 94.9837C36.223 95.3186 35.6721 95.221 35.3515 94.6721C35.0329 94.1267 35.2121 93.612 35.7714 93.2853C36.3377 92.9545 36.8706 93.0532 37.1872 93.5951ZM36.424 94.4184C36.9521 94.1099 37.2253 93.8198 37.1015 93.6079C37.0041 93.4412 36.6508 93.5543 36.154 93.8445C35.6121 94.1611 35.3175 94.4544 35.4331 94.6524C35.5387 94.833 35.9133 94.7167 36.424 94.4184ZM36.1484 91.7276C36.3812 92.1779 36.2727 92.8002 35.6473 93.1236C35.0505 93.4322 34.5217 93.1893 34.2723 92.7068C34.0487 92.2744 34.1196 91.9297 34.3411 91.8151C34.4698 91.7486 34.6014 91.7666 34.6753 91.9096C34.862 92.2705 34.1996 92.3911 34.3548 92.6913C34.4546 92.8843 34.7579 92.8226 35.2404 92.5731C35.7871 92.2904 35.9063 91.9252 35.7567 91.6358C35.679 91.4857 35.5699 91.3972 35.3948 91.3564L35.401 91.2807C35.7248 91.2763 35.9913 91.4239 36.1484 91.7276ZM35.342 90.0316C35.6094 90.6128 35.3953 91.1099 34.8178 91.3756C34.2147 91.6531 33.6759 91.5024 33.4102 90.9249C33.1462 90.3511 33.3747 89.8562 33.9631 89.5855C34.5589 89.3114 35.0797 89.4615 35.342 90.0316ZM34.5024 90.7767C35.0579 90.5211 35.358 90.259 35.2555 90.036C35.1748 89.8606 34.8122 89.9388 34.2895 90.1793C33.7193 90.4417 33.3976 90.7049 33.4934 90.9132C33.5808 91.1032 33.9651 91.0239 34.5024 90.7767ZM34.8033 89.141C34.7307 89.0272 34.6101 88.9766 34.4797 89.0298L32.394 89.8819C32.2525 89.9397 32.2083 90.023 32.2371 90.1894L32.1738 90.2152L31.6474 89.5437L31.6701 89.4823L34.2363 88.4339C34.3703 88.3791 34.418 88.251 34.3849 88.1168L34.4482 88.0909L34.8666 89.1151L34.8033 89.141ZM33.7754 86.4921C33.6876 86.2963 33.5867 86.2314 33.3797 86.2974L31.329 86.9516C31.1182 87.0189 31.0735 87.1302 31.1153 87.3407L31.0502 87.3615L30.6259 86.0315C30.429 85.4144 30.5784 84.9824 31.0268 84.8394C31.4791 84.6951 31.9035 85.0327 32.1444 85.7877L32.1982 85.9564L33.1718 85.6458C33.3826 85.5786 33.4249 85.4595 33.3536 85.1697L33.4187 85.149L33.8406 86.4713L33.7754 86.4921ZM32.0986 85.9882L32.0533 85.8464C31.9225 85.4362 31.6379 85.4046 31.2814 85.5183C30.833 85.6613 30.6852 85.8732 30.7634 86.1185L30.7806 86.1722C30.8185 86.291 30.9027 86.3697 31.102 86.3061L32.0986 85.9882ZM31.4823 83.1005C31.1425 83.1846 31.0333 83.3085 31.0808 83.4915C31.1101 83.6045 31.1948 83.6906 31.2831 83.7425L32.576 83.4068C32.7162 83.3704 32.7805 83.2498 32.7656 83.1124L32.8318 83.0952L33.1098 84.1661L33.0436 84.1833C32.9869 84.0608 32.8741 83.9945 32.7378 84.0299L30.557 84.596C30.409 84.6344 30.3541 84.711 30.3605 84.8798L30.2943 84.897L29.8662 84.1768L29.8969 84.1189L31.2015 83.7803C30.9899 83.6856 30.787 83.4805 30.7274 83.2508C30.6343 82.8925 30.8055 82.607 31.2271 82.5017L32.2961 82.2325C32.4216 82.1875 32.4752 82.0738 32.4623 81.9441L32.5285 81.9269L32.8065 82.9978L32.7403 83.015C32.6836 82.8926 32.5708 82.8263 32.4345 82.8616L31.4823 83.1005ZM32.3855 80.9542C32.4894 81.4545 32.1701 82.0139 31.5517 82.1424C30.8505 82.2881 30.4113 81.915 30.3058 81.4069C30.2133 80.9617 30.4572 80.5536 30.9378 80.4537L30.9955 80.4746L31.2133 81.5224L31.2999 81.5044C31.9184 81.3759 32.0792 81.0425 32.0195 80.7549C31.9843 80.5856 31.8647 80.4255 31.7166 80.3453L31.7578 80.2669C32.0615 80.364 32.3085 80.5839 32.3855 80.9542ZM31.1297 81.5356L31.0266 81.0393C30.5083 81.1552 30.3649 81.296 30.3911 81.422C30.4189 81.5559 30.5986 81.6296 31.1297 81.5356ZM32.045 79.0681C32.1258 79.5726 31.781 80.1168 31.1573 80.2167C30.4502 80.33 30.0287 79.9371 29.9466 79.4246C29.8747 78.9757 30.1372 78.5792 30.6218 78.5015L30.6785 78.525L30.8478 79.5818L30.9352 79.5678C31.5589 79.4678 31.7349 79.1422 31.6885 78.8522C31.6611 78.6814 31.5491 78.516 31.4048 78.4291L31.4496 78.3526C31.7485 78.4637 31.9851 78.6947 32.045 79.0681ZM30.7638 79.5912L30.6836 79.0906C30.1605 79.1825 30.0108 79.3165 30.0312 79.4437C30.0528 79.5787 30.2289 79.6605 30.7638 79.5912ZM30.4007 76.8619C30.0522 76.8946 29.9258 77.0009 29.9456 77.189C29.9591 77.317 30.0473 77.4251 30.1389 77.4882L31.4393 77.3514C31.5833 77.3362 31.6648 77.2265 31.6705 77.0883L31.7386 77.0812L31.8544 78.1815L31.7863 78.1887C31.7484 78.0592 31.6467 77.9768 31.5067 77.9916L30.3583 78.1124C30.1383 78.1356 30.0391 78.231 30.0538 78.371L29.9858 78.3782L29.734 77.5996L29.7725 77.543L30.0526 77.5135C29.8458 77.3937 29.6579 77.1464 29.6318 76.8984C29.5927 76.5263 29.7887 76.275 30.2373 76.2319L31.3344 76.1245C31.4652 76.0986 31.5351 75.9941 31.5417 75.864L31.6097 75.8568L31.7255 76.9571L31.6575 76.9643C31.6196 76.8348 31.5179 76.7525 31.3778 76.7672L30.4007 76.8619ZM31.5388 75.8125C31.505 75.6818 31.4059 75.5964 31.2655 75.6067L30.1099 75.6917C29.9574 75.703 29.8896 75.7685 29.8656 75.9356L29.7974 75.9406L29.5045 75.1392L29.5451 75.0878L31.2182 74.9647C31.3627 74.9541 31.4476 74.847 31.4576 74.7091L31.5258 74.704L31.607 75.8075L31.5388 75.8125ZM28.9084 75.8649C28.7037 75.8799 28.5225 75.7198 28.5077 75.5192C28.4927 75.3145 28.6488 75.1336 28.8534 75.1186C29.0581 75.1035 29.239 75.2596 29.2541 75.4643C29.2688 75.6649 29.113 75.8498 28.9084 75.8649ZM31.4394 73.5353C31.4166 73.3788 31.2833 73.3448 31.152 73.4315L30.6506 73.766C30.7728 73.8484 30.8461 73.8995 30.9233 73.9465C31.1592 74.0913 31.4358 74.0303 31.4439 73.7968L31.5123 73.7956L31.5269 74.6565L31.4585 74.6576C31.4404 74.5372 31.3077 74.3061 31.043 74.1215C30.8394 73.9801 30.7459 73.9253 30.571 73.8156L30.0259 74.179C29.6996 74.3938 29.5935 74.5404 29.5832 74.6452L29.5148 74.6464L29.4939 73.4154L29.5622 73.4143C29.5854 73.595 29.7107 73.625 29.8699 73.5217L30.1922 73.307L30.0824 73.2405C29.81 73.0761 29.5729 73.0922 29.5603 73.2976L29.4919 73.2988L29.479 72.5425L29.5474 72.5414C29.5654 72.6497 29.698 72.8808 29.9627 73.0655C30.089 73.1559 30.1704 73.2108 30.2598 73.2616L31.0835 72.7165C31.3023 72.5719 31.4007 72.4415 31.4188 72.3204L31.4872 72.3193L31.5078 73.5341L31.4394 73.5353ZM31.4447 71.4343C31.4328 71.2201 31.3617 71.1233 31.1448 71.1109L28.9959 70.9876C28.775 70.9749 28.6934 71.0629 28.6571 71.2744L28.5888 71.2705L28.6687 69.8767C28.7058 69.23 28.9999 68.8802 29.4699 68.9071C29.9439 68.9343 30.2193 69.4015 30.1739 70.1928L30.1638 70.3695L31.184 70.428C31.4049 70.4407 31.487 70.3446 31.5241 70.0486L31.5924 70.0525L31.5129 71.4382L31.4447 71.4343ZM30.0593 70.3635L30.0679 70.2149C30.0925 69.7851 29.8381 69.6536 29.4646 69.6322C28.9946 69.6053 28.7808 69.7502 28.766 70.0072L28.7628 70.0635C28.7557 70.188 28.8061 70.2916 29.015 70.3036L30.0593 70.3635ZM31.5901 68.9773C31.5809 68.8427 31.4993 68.7404 31.3594 68.7247L30.2119 68.5957C29.992 68.571 29.8746 68.6428 29.8589 68.7828L29.7909 68.7751L29.7124 67.9606L29.7623 67.9136L30.1781 67.9603C29.9313 67.7423 29.749 67.5275 29.7777 67.2716C29.8007 67.0677 29.9336 66.9652 30.1056 66.9846C30.2855 67.0048 30.383 67.1453 30.3669 67.2892C30.3457 67.4771 30.1747 67.4863 30.1567 67.6462C30.1477 67.7261 30.1915 67.8404 30.2758 67.9551L31.4313 68.085C31.5752 68.1012 31.6784 68.0115 31.7271 67.7579L31.7951 67.7656L31.6581 68.985L31.5901 68.9773ZM32.0663 66.256C31.9669 66.8879 31.5132 67.1831 30.8852 67.0843C30.2294 66.9811 29.8644 66.5571 29.9632 65.9292C30.0614 65.3052 30.5258 65.0199 31.1656 65.1205C31.8135 65.2224 32.1638 65.636 32.0663 66.256ZM30.9545 66.411C31.5586 66.506 31.9537 66.4541 31.9918 66.2117C32.0218 66.0209 31.6766 65.8851 31.1083 65.7957C30.4883 65.6982 30.0746 65.739 30.0389 65.9655C30.0064 66.1722 30.3702 66.319 30.9545 66.411ZM32.3867 64.4561C32.3108 64.8307 32.061 65.0305 31.5996 64.937L30.326 64.679L30.2876 64.8683L30.2285 64.8563C30.1849 64.6258 30.0288 64.2617 29.8456 63.9906L29.8938 63.9347L30.371 64.0313C30.4022 63.857 30.4502 63.5999 30.4685 63.5092L30.575 63.5308C30.5606 63.6018 30.4984 63.8683 30.4577 64.0489L31.5539 64.271C31.9561 64.3524 32.092 64.2897 32.1288 64.1083C32.1479 64.0136 32.1182 63.9173 32.056 63.839L32.1114 63.7887C32.2981 63.9209 32.4418 64.184 32.3867 64.4561ZM32.7454 62.9076C32.5934 63.529 32.1165 63.7851 31.4991 63.634C30.8542 63.4762 30.5261 63.0231 30.6771 62.4057C30.8273 61.7921 31.3139 61.5467 31.9431 61.7007C32.5801 61.8565 32.8946 62.298 32.7454 62.9076ZM31.6245 62.9688C32.2186 63.1142 32.6166 63.0956 32.6749 62.8572C32.7208 62.6696 32.3882 62.5054 31.8294 62.3687C31.2197 62.2195 30.8041 62.2255 30.7496 62.4482C30.6998 62.6515 31.0501 62.8283 31.6245 62.9688ZM33.2935 60.8423C33.1494 61.3283 32.64 61.7018 31.9649 61.5017C31.3208 61.3107 31.1078 60.7692 31.2622 60.2484C31.4006 59.7817 31.6905 59.5823 31.9297 59.6532C32.0686 59.6944 32.151 59.7985 32.1052 59.9528C31.9897 60.3424 31.4286 59.9704 31.3325 60.2944C31.2708 60.5027 31.5322 60.6684 32.0529 60.8228C32.6431 60.9977 32.982 60.8171 33.0747 60.5046C33.1227 60.3426 33.1053 60.2032 33.0073 60.0524L33.0642 60.0021C33.3007 60.2233 33.3907 60.5144 33.2935 60.8423ZM33.8886 59.0617C33.6778 59.6656 33.1786 59.875 32.5784 59.6655C31.9517 59.4468 31.6683 58.9644 31.8778 58.3642C32.0859 57.7678 32.5938 57.5701 33.2054 57.7835C33.8246 57.9996 34.0954 58.4691 33.8886 59.0617ZM32.767 59.0154C33.3443 59.2169 33.7423 59.2365 33.8232 59.0048C33.8868 58.8224 33.5715 58.6271 33.0283 58.4376C32.4357 58.2308 32.0214 58.197 31.9458 58.4135C31.8769 58.611 32.2086 58.8205 32.767 59.0154ZM34.1176 58.0471C34.1428 57.9146 34.0897 57.795 33.9583 57.7443L31.856 56.9341C31.7134 56.8791 31.6241 56.9093 31.531 57.0502L31.4672 57.0256L31.5446 56.1759L31.6032 56.1467L34.1898 57.1437C34.325 57.1957 34.4475 57.1352 34.5155 57.0148L34.5793 57.0394L34.1814 58.0717L34.1176 58.0471ZM35.2086 55.4226C35.2814 55.2207 35.2539 55.1039 35.0591 55.0076L33.1295 54.0539C32.9311 53.9558 32.8216 54.0049 32.7055 54.1854L32.6442 54.1551L33.2628 52.9035C33.5498 52.3228 33.9572 52.1158 34.3792 52.3244C34.8048 52.5348 34.8757 53.0724 34.5245 53.783L34.4461 53.9417L35.3622 54.3944C35.5606 54.4925 35.6737 54.4362 35.8236 54.1782L35.8849 54.2085L35.2699 55.4529L35.2086 55.4226ZM34.3523 53.8953L34.4183 53.7619C34.609 53.3759 34.4263 53.1555 34.0908 52.9897C33.6688 52.7811 33.4154 52.8308 33.3013 53.0617L33.2763 53.1122C33.221 53.224 33.227 53.3391 33.4145 53.4318L34.3523 53.8953ZM35.9179 51.3891C35.6154 51.213 35.4507 51.2261 35.3575 51.3906C35.3 51.4921 35.3009 51.6129 35.3283 51.7116L36.4904 52.37C36.6164 52.4414 36.7465 52.3996 36.8315 52.2905L36.891 52.3242L36.3456 53.2868L36.286 53.2531C36.3305 53.1257 36.2956 52.9995 36.1731 52.9301L34.2128 51.8195C34.0798 51.7441 33.987 51.7609 33.8742 51.8866L33.8147 51.8529L34.0084 51.0377L34.0707 51.0175L35.2433 51.682C35.1572 51.4667 35.1541 51.1783 35.2712 50.9717C35.4536 50.6497 35.7752 50.5637 36.1512 50.7814L37.1064 51.3318C37.2279 51.3868 37.3455 51.3424 37.4265 51.2403L37.486 51.274L36.9406 52.2367L36.881 52.2029C36.9255 52.0755 36.8906 51.9494 36.7681 51.88L35.9179 51.3891ZM38.0595 50.4753C37.7864 50.9072 37.1679 51.0872 36.6341 50.7495C36.0288 50.3667 35.9727 49.7932 36.2501 49.3546C36.4932 48.9704 36.9523 48.8466 37.3671 49.109L37.3941 49.1642L36.822 50.0686L36.8968 50.1159C37.4306 50.4536 37.778 50.3258 37.935 50.0776C38.0275 49.9314 38.0529 49.7332 38.0022 49.5726L38.0863 49.5449C38.2371 49.8259 38.2617 50.1557 38.0595 50.4753ZM36.7527 50.02L37.0237 49.5916C36.5706 49.3145 36.3697 49.316 36.3009 49.4248C36.2278 49.5404 36.3057 49.7182 36.7527 50.02ZM39.1263 48.883C38.8336 49.3018 38.2075 49.4531 37.6898 49.0913C37.1028 48.681 37.0731 48.1055 37.3704 47.6801C37.6309 47.3075 38.0952 47.205 38.4975 47.4862L38.522 47.5426L37.9088 48.4197L37.9814 48.4704C38.4991 48.8323 38.852 48.7207 39.0203 48.48C39.1194 48.3382 39.1539 48.1414 39.1106 47.9786L39.1959 47.9548C39.3336 48.2424 39.343 48.573 39.1263 48.883ZM37.8419 48.368L38.1323 47.9525C37.6924 47.6548 37.4917 47.6471 37.4179 47.7526C37.3396 47.8647 37.4092 48.0459 37.8419 48.368ZM39.4767 46.1542C39.2033 45.9356 39.0385 45.9243 38.9222 46.0733C38.8429 46.1748 38.8313 46.3138 38.8534 46.4229L39.8839 47.2277C39.998 47.3169 40.1329 47.2945 40.2329 47.1991L40.2868 47.2412L39.6058 48.1132L39.5519 48.0711C39.6146 47.9516 39.5987 47.8217 39.4877 47.735L38.5776 47.0243C38.4032 46.8881 38.2656 46.8879 38.1789 46.9988L38.125 46.9567L38.4847 46.2217L38.5517 46.2077L38.7737 46.3811C38.7082 46.1512 38.7448 45.8429 38.8983 45.6463C39.1286 45.3514 39.4442 45.3069 39.7968 45.5874L40.6607 46.2723C40.7728 46.3445 40.8956 46.3179 40.9907 46.2288L41.0446 46.2709L40.3636 47.1429L40.3097 47.1008C40.3724 46.9813 40.3564 46.8514 40.2454 46.7648L39.4767 46.1542ZM41.0247 46.1898C41.0915 46.0725 41.08 45.9422 40.9721 45.8517L40.0839 45.1076C39.9667 45.0094 39.8725 45.0091 39.7388 45.1123L39.6864 45.0684L40.0346 44.2894L40.0995 44.2808L41.3855 45.3583C41.4965 45.4513 41.6321 45.4337 41.7353 45.3417L41.7878 45.3857L41.0772 46.2337L41.0247 46.1898ZM39.1014 44.3946C38.9441 44.2628 38.9257 44.0216 39.0549 43.8674C39.1867 43.7102 39.4248 43.6892 39.582 43.821C39.7393 43.9527 39.7603 44.1908 39.6285 44.3481C39.4993 44.5023 39.2587 44.5263 39.1014 44.3946ZM42.5365 44.4843C42.6287 44.3558 42.5563 44.2388 42.4015 44.2101L41.8085 44.1029C41.8392 44.247 41.8565 44.3347 41.8795 44.4221C41.9488 44.6901 42.1903 44.8381 42.3582 44.6756L42.4083 44.7222L41.8213 45.3522L41.7713 45.3056C41.8418 45.2063 41.9067 44.9478 41.8442 44.6312C41.7958 44.3881 41.7665 44.2838 41.7167 44.0834L41.0721 43.9667C40.6881 43.8949 40.5099 43.9268 40.4297 43.9951L40.3797 43.9485L41.2189 43.0477L41.269 43.0944C41.1603 43.2405 41.2296 43.3491 41.4159 43.3852L41.7969 43.4543L41.7641 43.3302C41.6821 43.0228 41.5002 42.8698 41.3485 43.009L41.2985 42.9624L41.8141 42.409L41.8641 42.4556C41.8018 42.546 41.737 42.8045 41.7994 43.1212C41.8276 43.2739 41.848 43.3699 41.8772 43.4686L42.8485 43.6477C43.1064 43.6955 43.2678 43.6699 43.3647 43.5953L43.4148 43.6419L42.5865 44.5309L42.5365 44.4843ZM43.9951 42.9723C44.1351 42.8096 44.151 42.6906 44.0032 42.5313L42.5399 40.9528C42.3894 40.7906 42.2696 40.7974 42.0968 40.9247L42.0503 40.8745L43.0741 39.9254C43.5491 39.485 44.0036 39.4367 44.3236 39.7819C44.6464 40.1301 44.5211 40.6577 43.9399 41.1966L43.81 41.3169L44.5048 42.0663C44.6553 42.2286 44.781 42.2163 45.013 42.0286L45.0595 42.0787L44.0416 43.0224L43.9951 42.9723ZM43.7389 41.2402L43.8481 41.139C44.1638 40.8463 44.0715 40.5752 43.8172 40.3008C43.4971 39.9556 43.2426 39.9118 43.0537 40.0869L43.0124 40.1252C42.921 40.21 42.8855 40.3197 43.0277 40.4731L43.7389 41.2402ZM45.8034 41.3022C45.8903 41.1989 45.9026 41.0687 45.8129 40.9602L45.0769 40.0704C44.9359 39.8999 44.8016 39.87 44.6931 39.9598L44.6495 39.9071L45.1587 39.2666L45.2272 39.2673L45.4939 39.5898C45.4678 39.2615 45.4858 38.9803 45.6843 38.8162C45.8424 38.6854 46.0092 38.7041 46.1195 38.8374C46.2349 38.9769 46.2075 39.1458 46.0958 39.2381C45.9501 39.3586 45.8207 39.2463 45.6967 39.3489C45.6347 39.4002 45.5869 39.5128 45.5679 39.6539L46.3089 40.5499C46.4012 40.6615 46.5377 40.6687 46.749 40.5201L46.7925 40.5728L45.847 41.3549L45.8034 41.3022ZM48.0357 39.6741C47.5256 40.0602 46.9941 39.9579 46.6105 39.451C46.2099 38.9217 46.2412 38.3631 46.7481 37.9795C47.2517 37.5983 47.7841 37.715 48.1751 38.2315C48.5708 38.7544 48.5362 39.2953 48.0357 39.6741ZM47.1276 39.0142C47.4966 39.5018 47.8171 39.7386 48.0128 39.5905C48.1668 39.474 48.0124 39.1367 47.6652 38.6779C47.2865 38.1775 46.9603 37.9198 46.7774 38.0582C46.6106 38.1845 46.7707 38.5426 47.1276 39.0142ZM49.5168 38.6026C49.2016 38.8187 48.8831 38.7882 48.617 38.3999L47.8823 37.328L47.723 37.4372L47.6889 37.3874C47.818 37.1916 47.9594 36.8215 48.0167 36.4994L48.0902 36.4928L48.3655 36.8944C48.5092 36.791 48.7226 36.6398 48.799 36.5875L48.8604 36.6771C48.8007 36.718 48.5704 36.8661 48.4155 36.9674L49.0479 37.8899C49.2799 38.2284 49.4211 38.2779 49.5738 38.1733C49.6534 38.1187 49.6992 38.0289 49.709 37.9294L49.7838 37.9318C49.8258 38.1567 49.7458 38.4456 49.5168 38.6026ZM50.8509 37.738C50.3102 38.0797 49.7891 37.933 49.4496 37.3956C49.0949 36.8344 49.1732 36.2805 49.7106 35.9409C50.2446 35.6035 50.7652 35.7647 51.1113 36.3122C51.4616 36.8666 51.3815 37.4027 50.8509 37.738ZM50.0016 37.0039C50.3283 37.5209 50.6277 37.7838 50.8352 37.6527C50.9984 37.5496 50.873 37.2005 50.5657 36.7141C50.2304 36.1836 49.927 35.8993 49.7332 36.0218C49.5563 36.1336 49.6857 36.504 50.0016 37.0039ZM52.6795 36.6326C52.2382 36.882 51.6123 36.7967 51.2658 36.1838C50.9352 35.5989 51.1583 35.0615 51.6311 34.7942C52.0549 34.5547 52.402 34.6127 52.5247 34.8298C52.596 34.9559 52.5829 35.0881 52.4428 35.1673C52.0891 35.3672 51.9439 34.7098 51.6497 34.8761C51.4606 34.9831 51.5335 35.2838 51.8008 35.7566C52.1037 36.2925 52.473 36.398 52.7567 36.2377C52.9038 36.1545 52.9882 36.0421 53.0224 35.8656L53.0983 35.869C53.1147 36.1924 52.9772 36.4643 52.6795 36.6326ZM54.3446 35.7654C53.7734 36.0534 53.269 35.857 52.9829 35.2894C52.6841 34.6966 52.8155 34.1528 53.3832 33.8667C53.9472 33.5824 54.4499 33.7931 54.7414 34.3715C55.0366 34.9572 54.9051 35.483 54.3446 35.7654ZM53.5702 34.9528C53.8454 35.4989 54.118 35.7896 54.3372 35.6791C54.5096 35.5922 54.4185 35.2326 54.1596 34.7189C53.8771 34.1584 53.6026 33.8462 53.3978 33.9494C53.211 34.0436 53.304 34.4247 53.5702 34.9528ZM55.214 35.1949C55.3242 35.117 55.369 34.994 55.3095 34.8664L54.3578 32.8242C54.2932 32.6856 54.208 32.6454 54.0431 32.6823L54.0143 32.6203L54.6596 32.0621L54.7221 32.0818L55.893 34.5944C55.9542 34.7257 56.0844 34.7671 56.2169 34.7276L56.2458 34.7896L55.2429 35.2569L55.214 35.1949ZM57.8232 34.0679C58.0155 33.9726 58.0764 33.8692 58.0025 33.6649L57.27 31.641C57.1947 31.4329 57.0816 31.3925 56.8729 31.4424L56.8496 31.3781L58.1624 30.9029C58.7715 30.6825 59.2088 30.8151 59.369 31.2578C59.5306 31.7042 59.2096 32.1413 58.4643 32.411L58.2979 32.4712L58.6456 33.4322C58.7209 33.6402 58.8415 33.6779 59.1283 33.5955L59.1516 33.6598L57.8464 34.1322L57.8232 34.0679ZM58.2623 32.3729L58.4022 32.3222C58.807 32.1757 58.8277 31.8901 58.7004 31.5383C58.5402 31.0956 58.3228 30.9561 58.0807 31.0437L58.0277 31.0629C57.9105 31.1054 57.835 31.1926 57.9063 31.3893L58.2623 32.3729ZM61.1379 31.6547C61.0436 31.3176 60.9164 31.2122 60.7349 31.2653C60.6229 31.298 60.5394 31.3853 60.4902 31.4751L60.865 32.7572C60.9056 32.8962 61.0281 32.9568 61.1651 32.9378L61.1843 33.0034L60.1223 33.3138L60.1031 33.2482C60.2238 33.1878 60.2866 33.073 60.2471 32.9378L59.615 30.7753C59.5721 30.6285 59.4938 30.576 59.3253 30.5875L59.3061 30.5218L60.013 30.0721L60.0718 30.101L60.4499 31.3947C60.5381 31.1803 60.7369 30.9713 60.9648 30.9047C61.32 30.8008 61.6106 30.9632 61.7287 31.3814L62.0303 32.4417C62.0791 32.5658 62.1943 32.6159 62.3236 32.5991L62.3428 32.6648L61.2808 32.9752L61.2616 32.9095C61.3823 32.8491 61.4451 32.7343 61.4056 32.5992L61.1379 31.6547ZM63.3103 32.4886C62.8138 32.6093 62.244 32.309 62.0947 31.6953C61.9255 30.9994 62.2836 30.5479 62.7879 30.4253C63.2296 30.3179 63.6458 30.5479 63.7618 31.0249L63.7429 31.0833L62.703 31.3362L62.7239 31.4222C62.8732 32.0359 63.2118 32.1855 63.4972 32.1161C63.6653 32.0752 63.8212 31.9503 63.8963 31.7996L63.9761 31.8381C63.8892 32.1449 63.6778 32.3992 63.3103 32.4886ZM62.6869 31.2531L63.1795 31.1333C63.0462 30.6192 62.9007 30.4807 62.7756 30.5111C62.6427 30.5434 62.5752 30.7255 62.6869 31.2531ZM65.1839 32.0842C64.6824 32.1822 64.1267 31.8563 64.0056 31.2364C63.8682 30.5335 64.2464 30.0988 64.7558 29.9993C65.202 29.912 65.6073 30.1608 65.7014 30.6425L65.6799 30.7L64.6296 30.9053L64.6465 30.9922C64.7677 31.6121 65.0992 31.7769 65.3874 31.7205C65.5572 31.6873 65.7187 31.5697 65.8006 31.4225L65.8785 31.4646C65.7778 31.7672 65.555 32.0116 65.1839 32.0842ZM64.6173 30.8216L65.1148 30.7244C65.005 30.2047 64.866 30.0597 64.7396 30.0844C64.6054 30.1106 64.5297 30.2894 64.6173 30.8216ZM67.3279 30.3615C67.2824 30.0144 67.1714 29.8921 66.9842 29.9189C66.8568 29.9371 66.7521 30.0293 66.6924 30.1232L66.8774 31.4176C66.8979 31.561 67.0106 31.6383 67.1488 31.6389L67.1585 31.7066L66.0632 31.8632L66.0536 31.7955C66.1816 31.7528 66.2601 31.6481 66.2402 31.5087L66.0767 30.3656C66.0454 30.1466 65.9464 30.051 65.807 30.0709L65.7973 30.0032L66.566 29.7226L66.624 29.759L66.6639 30.0378C66.776 29.8267 67.0161 29.6298 67.263 29.5945C67.6334 29.5416 67.8917 29.7282 67.9515 30.1748L68.0996 31.2672C68.1303 31.397 68.2373 31.463 68.3676 31.4646L68.3772 31.5324L67.282 31.6889L67.2723 31.6212C67.4003 31.5785 67.4788 31.4738 67.4589 31.3344L67.3279 30.3615ZM68.4196 31.4606C68.5492 31.4233 68.632 31.3219 68.6179 31.1818L68.5014 30.029C68.486 29.8768 68.4187 29.8109 68.2509 29.7914L68.244 29.7234L69.0372 29.4087L69.0896 29.4479L69.2583 31.1171C69.2729 31.2612 69.3823 31.3431 69.5204 31.3494L69.5273 31.4174L68.4265 31.5287L68.4196 31.4606ZM68.2955 28.8326C68.2749 28.6284 68.4301 28.4429 68.6302 28.4227C68.8343 28.4021 69.0195 28.5532 69.0401 28.7573C69.0607 28.9615 68.9096 29.1466 68.7054 29.1672C68.5053 29.1874 68.3162 29.0367 68.2955 28.8326ZM70.6916 31.2873C70.8472 31.2588 70.8762 31.1242 70.7846 30.9962L70.4318 30.5077C70.3539 30.6328 70.3056 30.7079 70.2616 30.7869C70.1256 31.0279 70.1968 31.3021 70.4305 31.3015L70.4342 31.3698L69.5745 31.4164L69.5708 31.3481C69.6904 31.3255 69.9165 31.1843 70.0911 30.913C70.2248 30.7042 70.2761 30.6088 70.3792 30.43L69.9958 29.8987C69.769 29.5806 69.6185 29.48 69.5134 29.4736L69.5097 29.4053L70.739 29.3387L70.7427 29.407C70.5631 29.4369 70.5377 29.5631 70.6468 29.7184L70.8734 30.0325L70.9358 29.9203C71.0899 29.642 71.065 29.4056 70.8593 29.4006L70.8555 29.3323L71.6108 29.2914L71.6145 29.3597C71.5069 29.3816 71.2809 29.5228 71.1062 29.7942C71.0206 29.9237 70.9687 30.0071 70.9213 30.0984L71.4967 30.9012C71.6493 31.1145 71.7833 31.208 71.9049 31.2215L71.9086 31.2898L70.6953 31.3556L70.6916 31.2873ZM72.7909 31.2074C73.0046 31.1876 73.0987 31.113 73.1031 30.8958L73.1467 28.7438C73.1512 28.5226 73.0603 28.4443 72.8476 28.4158L72.849 28.3474L74.2447 28.3758C74.8924 28.3889 75.2529 28.6699 75.2433 29.1405C75.2337 29.6151 74.777 29.9077 73.9846 29.8916L73.8076 29.888L73.7869 30.9097C73.7824 31.1309 73.8814 31.2094 74.1787 31.2356L74.1773 31.3039L72.7895 31.2758L72.7909 31.2074ZM73.8097 29.7834L73.9586 29.7864C74.389 29.7952 74.5109 29.5361 74.5185 29.162C74.5281 28.6914 74.3754 28.483 74.1179 28.4778L74.0616 28.4767C73.9369 28.4741 73.8352 28.5284 73.831 28.7376L73.8097 29.7834ZM75.252 31.2621C75.3863 31.2484 75.4857 31.1633 75.4967 31.023L75.5867 29.8718C75.604 29.6512 75.5282 29.5363 75.3878 29.5253L75.3931 29.4571L76.2045 29.3511L76.2532 29.3993L76.2206 29.8164C76.4301 29.5624 76.6386 29.3729 76.8953 29.393C77.0999 29.4089 77.2068 29.5384 77.1933 29.7108C77.1792 29.8913 77.0421 29.9936 76.8977 29.9823C76.7092 29.9676 76.6943 29.7969 76.5338 29.7844C76.4536 29.7781 76.3409 29.8258 76.2291 29.9139L76.1385 31.0731C76.1272 31.2175 76.2203 31.3176 76.4754 31.3577L76.4701 31.4259L75.2467 31.3303L75.252 31.2621ZM77.9886 31.6439C77.3536 31.5671 77.0424 31.1242 77.1188 30.4931C77.1986 29.8341 77.6093 29.4542 78.2404 29.5306C78.8674 29.6065 79.1691 30.0604 79.0913 30.7035C79.0125 31.3545 78.6117 31.7194 77.9886 31.6439ZM77.7942 30.5384C77.7207 31.1455 77.7866 31.5384 78.0302 31.5679C78.222 31.5911 78.3454 31.2413 78.4145 30.6702C78.4899 30.0471 78.4344 29.6351 78.2067 29.6075C77.999 29.5824 77.8652 29.9512 77.7942 30.5384ZM79.7982 31.9034C79.4214 31.8394 79.2138 31.596 79.2927 31.1319L79.5104 29.8508L79.32 29.8184L79.3301 29.7589C79.5591 29.7081 79.9181 29.5405 80.1833 29.3489L80.2407 29.3954L80.1592 29.8753C80.3344 29.901 80.5928 29.9408 80.6841 29.9563L80.6659 30.0634C80.5945 30.0513 80.3261 29.9975 80.1443 29.9626L79.957 31.0652C79.8882 31.4698 79.9553 31.6036 80.1377 31.6346C80.2329 31.6508 80.3283 31.6181 80.4045 31.5535L80.4566 31.6072C80.3303 31.798 80.0719 31.9499 79.7982 31.9034ZM81.3586 32.2087C80.7321 32.0789 80.4592 31.6115 80.5881 30.9891C80.7227 30.339 81.1638 29.9948 81.7862 30.1238C82.4048 30.2519 82.6674 30.7294 82.5361 31.3637C82.4031 32.0059 81.9731 32.3359 81.3586 32.2087ZM81.2573 31.0907C81.1333 31.6895 81.1661 32.0866 81.4064 32.1364C81.5955 32.1756 81.7477 31.8373 81.8644 31.2739C81.9917 30.6593 81.9708 30.2442 81.7463 30.1977C81.5414 30.1552 81.3772 30.5115 81.2573 31.0907ZM83.4419 32.6834C82.9511 32.5564 82.5601 32.0603 82.7365 31.3787C82.9049 30.7283 83.4386 30.4965 83.9644 30.6327C84.4357 30.7547 84.6451 31.0374 84.5826 31.2789C84.5463 31.4191 84.4451 31.5051 84.2893 31.4648C83.8959 31.363 84.2481 30.7892 83.9209 30.7045C83.7106 30.6501 83.5542 30.9171 83.4181 31.4429C83.2638 32.0388 83.4562 32.3713 83.7717 32.4529C83.9353 32.4953 84.074 32.473 84.2213 32.3698L84.2735 32.4249C84.0607 32.669 83.773 32.7691 83.4419 32.6834ZM85.2424 33.2155C84.6313 33.0262 84.4045 32.5348 84.5926 31.9275C84.7891 31.2934 85.2611 30.9932 85.8684 31.1813C86.4717 31.3682 86.6873 31.8688 86.4956 32.4876C86.3015 33.114 85.8419 33.4012 85.2424 33.2155ZM85.249 32.093C85.068 32.6771 85.0625 33.0755 85.2969 33.1482C85.4814 33.2053 85.6654 32.8832 85.8357 32.3337C86.0214 31.7342 86.0405 31.3189 85.8215 31.251C85.6216 31.1891 85.424 31.528 85.249 32.093ZM86.2645 33.4088C86.3978 33.4297 86.5156 33.3729 86.562 33.2399L87.3043 31.1126C87.3546 30.9683 87.3215 30.88 87.1777 30.7915L87.2002 30.7269L88.052 30.777L88.083 30.8347L87.1698 33.452C87.1221 33.5887 87.1866 33.7092 87.3091 33.7733L87.2866 33.8379L86.2419 33.4734L86.2645 33.4088ZM88.9262 34.4053C89.1304 34.4714 89.2463 34.4399 89.336 34.2421L90.2245 32.2816C90.3159 32.08 90.2632 31.9722 90.0789 31.8622L90.1071 31.7999L91.3787 32.3762C91.9687 32.6436 92.1892 33.044 91.9949 33.4727C91.7989 33.9051 91.2639 33.9939 90.542 33.6667L90.3808 33.5936L89.9589 34.5244C89.8676 34.726 89.9276 34.8371 90.1905 34.9783L90.1622 35.0406L88.898 34.4676L88.9262 34.4053ZM90.424 33.4984L90.5595 33.5598C90.9516 33.7375 91.1659 33.5475 91.3203 33.2067C91.5147 32.778 91.4565 32.5263 91.2219 32.42L91.1706 32.3968C91.057 32.3453 90.9422 32.3551 90.8558 32.5456L90.424 33.4984ZM92.9803 34.9752C93.1455 34.6666 93.1266 34.5025 92.9589 34.4152C92.8554 34.3613 92.7347 34.3666 92.6371 34.3974L92.0203 35.5822C91.9535 35.7107 91.9999 35.8392 92.112 35.9202L92.0804 35.9809L91.099 35.47L91.1306 35.4094C91.2595 35.4492 91.3843 35.4099 91.4493 35.285L92.4896 33.2865C92.5602 33.1509 92.5401 33.0588 92.4105 32.9505L92.4421 32.8898L93.2636 33.0543L93.2859 33.1159L92.6636 34.3114C92.8757 34.2177 93.1639 34.2044 93.3744 34.314C93.7027 34.4849 93.8001 34.8032 93.5959 35.1868L93.0798 36.1609C93.0292 36.2842 93.0777 36.4002 93.1826 36.4775L93.151 36.5382L92.1696 36.0273L92.2012 35.9666C92.3301 36.0065 92.4549 35.9672 92.52 35.8423L92.9803 34.9752ZM93.9693 37.0834C93.5281 36.8255 93.3265 36.2137 93.6452 35.6684C94.0066 35.0501 94.5777 34.9738 95.0258 35.2357C95.4183 35.4651 95.5581 35.9196 95.3105 36.3434L95.2563 36.3723L94.3323 35.8323L94.2877 35.9087C93.9689 36.454 94.1088 36.7968 94.3624 36.945C94.5118 37.0323 94.7107 37.0507 94.8694 36.9943L94.9001 37.0775C94.6245 37.238 94.2958 37.2742 93.9693 37.0834ZM94.3784 35.7614L94.8161 36.0172C95.0771 35.5546 95.0686 35.3539 94.9574 35.2889C94.8393 35.2199 94.6644 35.304 94.3784 35.7614ZM95.5981 38.0935C95.1693 37.8157 94.996 37.1953 95.3395 36.6651C95.7289 36.0641 96.3029 36.0142 96.7385 36.2964C97.12 36.5436 97.2388 37.004 96.9719 37.416L96.9164 37.4424L96.0183 36.8605L95.9702 36.9347C95.6267 37.4649 95.7507 37.8137 95.9972 37.9733C96.1424 38.0674 96.3402 38.095 96.5014 38.046L96.5282 38.1304C96.2455 38.2781 95.9155 38.2992 95.5981 38.0935ZM96.0676 36.7917L96.493 37.0674C96.7751 36.6173 96.7758 36.4164 96.6677 36.3464C96.5529 36.272 96.3743 36.348 96.0676 36.7917ZM98.3375 38.3472C98.5463 38.0662 98.5517 37.9012 98.3987 37.7901C98.2944 37.7145 98.1551 37.7079 98.0469 37.7337L97.2791 38.7921C97.194 38.9094 97.2211 39.0433 97.32 39.1399L97.2798 39.1953L96.3843 38.5456L96.4244 38.4902C96.5461 38.5487 96.6753 38.5281 96.758 38.4141L97.4361 37.4795C97.566 37.3004 97.5614 37.1628 97.4474 37.0801L97.4876 37.0248L98.2349 37.3582L98.2512 37.4247L98.0858 37.6526C98.3132 37.579 98.6226 37.6047 98.8246 37.7512C99.1274 37.9709 99.1831 38.2847 98.9152 38.647L98.2614 39.5346C98.1932 39.6492 98.2241 39.771 98.3165 39.8629L98.2763 39.9182L97.3808 39.2685L97.4209 39.2132C97.5426 39.2716 97.6718 39.251 97.7545 39.1371L98.3375 38.3472ZM98.3567 39.8956C98.4763 39.9582 98.6061 39.9422 98.6927 39.8311L99.4054 38.9175C99.4995 38.797 99.4964 38.7028 99.3886 38.5727L99.4307 38.5188L100.221 38.8396L100.232 38.9042L99.2003 40.2271C99.1112 40.3413 99.1336 40.4761 99.2291 40.5761L99.187 40.63L98.3147 39.9495L98.3567 39.8956ZM100.084 37.9107C100.21 37.7489 100.45 37.7221 100.609 37.8458C100.771 37.972 100.8 38.2092 100.674 38.371C100.548 38.5328 100.31 38.5621 100.149 38.4359C99.9899 38.3121 99.9575 38.0725 100.084 37.9107ZM100.114 41.3463C100.246 41.4339 100.36 41.3574 100.384 41.2017L100.47 40.6052C100.327 40.641 100.24 40.6615 100.153 40.6876C99.8878 40.7663 99.7485 41.0129 99.9168 41.1749L99.872 41.2266L99.2217 40.6623L99.2665 40.6107C99.3682 40.6776 99.6288 40.7333 99.943 40.6597C100.184 40.6026 100.287 40.5697 100.486 40.5128L100.58 39.8644C100.638 39.4781 100.6 39.3012 100.529 39.2235L100.573 39.1718L101.503 39.9786L101.458 40.0303C101.309 39.9268 101.202 40 101.173 40.1874L101.117 40.5707L101.24 40.5335C101.545 40.4406 101.691 40.2534 101.547 40.1068L101.591 40.0551L102.163 40.5508L102.118 40.6024C102.025 40.5434 101.765 40.4877 101.45 40.5613C101.299 40.5949 101.204 40.6188 101.106 40.6514L100.961 41.6285C100.923 41.8879 100.954 42.0482 101.032 42.1425L100.987 42.1942L100.07 41.3979L100.114 41.3463ZM101.677 42.7506C101.845 42.8847 101.964 42.8964 102.118 42.7432L103.644 41.2251C103.801 41.069 103.79 40.9495 103.656 40.7813L103.705 40.7331L104.69 41.7228C105.146 42.182 105.211 42.6345 104.877 42.9665C104.54 43.3013 104.009 43.1947 103.45 42.6328L103.325 42.5073L102.6 43.228C102.444 43.3841 102.46 43.5093 102.656 43.7346L102.607 43.7828L101.629 42.7988L101.677 42.7506ZM103.399 42.4335L103.504 42.5391C103.808 42.8442 104.075 42.7425 104.341 42.4786C104.674 42.1466 104.709 41.8907 104.527 41.7081L104.488 41.6682C104.4 41.5798 104.289 41.5482 104.141 41.6958L103.399 42.4335ZM103.41 44.4989C103.516 44.5821 103.647 44.5898 103.752 44.4962L104.615 43.7293C104.78 43.5823 104.806 43.447 104.712 43.3417L104.763 43.2963L105.421 43.7825L105.423 43.851L105.11 44.1289C105.437 44.0912 105.719 44.0993 105.89 44.2918C106.026 44.4452 106.014 44.6126 105.884 44.7275C105.749 44.8477 105.579 44.8263 105.483 44.718C105.357 44.5767 105.465 44.4434 105.358 44.3231C105.305 44.263 105.19 44.2192 105.049 44.2051L104.18 44.9774C104.071 45.0736 104.069 45.2103 104.225 45.4161L104.174 45.4616L103.359 44.5443L103.41 44.4989ZM105.116 46.6721C104.712 46.176 104.795 45.6412 105.288 45.2399C105.803 44.8208 106.363 44.8324 106.764 45.3254C107.163 45.8153 107.065 46.3515 106.562 46.7604C106.054 47.1744 105.512 47.1589 105.116 46.6721ZM105.743 45.7413C105.269 46.1273 105.044 46.456 105.199 46.6463C105.32 46.7961 105.652 46.6299 106.098 46.2667C106.585 45.8705 106.831 45.5353 106.686 45.3575C106.554 45.1952 106.202 45.3679 105.743 45.7413ZM106.24 48.114C106.012 47.8068 106.031 47.4874 106.41 47.2074L107.454 46.4342L107.339 46.279L107.388 46.243C107.588 46.365 107.963 46.4929 108.287 46.5384L108.296 46.6116L107.905 46.9013C108.013 47.0412 108.172 47.249 108.227 47.3233L108.14 47.388C108.097 47.3298 107.941 47.1051 107.834 46.954L106.935 47.6194C106.605 47.8636 106.561 48.0065 106.671 48.1553C106.728 48.2329 106.82 48.2753 106.919 48.2816L106.92 48.3564C106.697 48.4065 106.405 48.3371 106.24 48.114ZM107.151 49.4162C106.791 48.8879 106.919 48.362 107.444 48.0036C107.992 47.6293 108.548 47.6879 108.907 48.2129C109.263 48.7346 109.12 49.2607 108.585 49.6259C108.044 49.9956 107.505 49.9346 107.151 49.4162ZM107.855 48.5414C107.35 48.8862 107.098 49.1948 107.236 49.3975C107.345 49.5569 107.689 49.4192 108.164 49.0949C108.683 48.741 108.956 48.4277 108.827 48.2383C108.709 48.0656 108.343 48.208 107.855 48.5414ZM108.321 51.2043C108.056 50.7722 108.119 50.1437 108.719 49.7755C109.292 49.4242 109.837 49.628 110.121 50.0909C110.375 50.5059 110.33 50.8548 110.117 50.9852C109.994 51.061 109.861 51.0526 109.777 50.9154C109.565 50.569 110.216 50.4005 110.04 50.1124C109.926 49.9272 109.628 50.0109 109.165 50.2949C108.64 50.6167 108.548 50.9896 108.718 51.2674C108.807 51.4114 108.922 51.4917 109.1 51.5196L109.099 51.5955C108.776 51.6235 108.5 51.4958 108.321 51.2043ZM109.247 52.8375C108.939 52.2768 109.117 51.7657 109.674 51.4597C110.256 51.1401 110.804 51.2522 111.11 51.8093C111.414 52.3629 111.222 52.8728 110.654 53.1846C110.079 53.5004 109.549 53.3876 109.247 52.8375ZM110.032 52.0347C109.496 52.3291 109.215 52.6119 109.333 52.827C109.426 52.9962 109.782 52.8924 110.286 52.6154C110.836 52.3133 111.139 52.0279 111.028 51.8269C110.927 51.6435 110.55 51.75 110.032 52.0347ZM109.848 53.6859C109.93 53.793 110.055 53.8331 110.18 53.7688L112.184 52.7403C112.321 52.6705 112.357 52.5837 112.314 52.4204L112.375 52.3892L112.957 53.0129L112.94 53.0761L110.474 54.3416C110.345 54.4077 110.309 54.5394 110.353 54.6703L110.292 54.7015L109.787 53.7171L109.848 53.6859ZM111.064 56.255C111.166 56.4438 111.271 56.5011 111.473 56.4201L113.47 55.6171C113.675 55.5346 113.712 55.4202 113.654 55.2134L113.718 55.1878L114.239 56.4831C114.48 57.0841 114.363 57.5259 113.926 57.7015C113.486 57.8786 113.038 57.5731 112.742 56.8377L112.676 56.6735L111.728 57.0547C111.523 57.1372 111.489 57.2591 111.582 57.5428L111.518 57.5683L111 56.2805L111.064 56.255ZM112.773 56.6344L112.829 56.7725C112.989 57.172 113.275 57.1827 113.623 57.0431C114.059 56.8675 114.191 56.6453 114.095 56.4064L114.074 56.3542C114.028 56.2385 113.938 56.1662 113.744 56.2442L112.773 56.6344ZM113.597 59.474C113.93 59.3661 114.03 59.2347 113.97 59.0555C113.933 58.945 113.842 58.8651 113.75 58.8195L112.484 59.2457C112.347 59.2919 112.292 59.4168 112.316 59.5528L112.251 59.5747L111.898 58.5261L111.963 58.5042C112.028 58.6224 112.146 58.6806 112.279 58.6356L114.414 57.9168C114.559 57.868 114.609 57.7877 114.59 57.6198L114.655 57.598L115.133 58.2862L115.106 58.346L113.829 58.7761C114.047 58.8556 114.264 59.0458 114.34 59.2707C114.458 59.6215 114.307 59.9184 113.894 60.0532L112.847 60.3973C112.725 60.4511 112.679 60.5683 112.701 60.6967L112.636 60.7186L112.283 59.67L112.348 59.6482C112.413 59.7663 112.531 59.8245 112.664 59.7795L113.597 59.474ZM112.844 61.68C112.707 61.1879 112.988 60.6082 113.596 60.4383C114.286 60.2457 114.749 60.5884 114.889 61.0883C115.011 61.5262 114.795 61.9498 114.323 62.0818L114.264 62.0649L113.976 61.0341L113.89 61.0579C113.282 61.2278 113.144 61.5713 113.223 61.8542C113.27 62.0208 113.4 62.1725 113.553 62.2425L113.517 62.3235C113.207 62.247 112.946 62.0443 112.844 61.68ZM114.058 61.0153L114.195 61.5036C114.704 61.353 114.837 61.2029 114.803 61.0789C114.766 60.9472 114.582 60.8858 114.058 61.0153ZM113.312 63.5394C113.197 63.0415 113.504 62.4752 114.12 62.3334C114.817 62.1726 115.265 62.5361 115.381 63.0418C115.483 63.4849 115.248 63.8982 114.77 64.0084L114.712 63.9888L114.471 62.946L114.385 62.9658C113.77 63.1077 113.616 63.4445 113.682 63.7307C113.721 63.8993 113.844 64.0567 113.994 64.1337L113.954 64.2129C113.648 64.1224 113.397 63.9079 113.312 63.5394ZM114.555 62.9309L114.668 63.4249C115.184 63.2978 115.324 63.154 115.295 63.0285C115.265 62.8952 115.084 62.8255 114.555 62.9309ZM115.11 65.6193C115.455 65.5609 115.573 65.4455 115.539 65.2594C115.517 65.1328 115.421 65.0316 115.324 64.9754L114.038 65.2083C113.895 65.2341 113.822 65.3495 113.827 65.4877L113.759 65.4999L113.562 64.4112L113.63 64.399C113.677 64.5254 113.785 64.5999 113.923 64.5749L115.059 64.3692C115.277 64.3297 115.369 64.2273 115.344 64.0887L115.411 64.0765L115.72 64.8342L115.686 64.8936L115.409 64.9438C115.624 65.0479 115.829 65.2805 115.874 65.526C115.941 65.8942 115.764 66.1592 115.32 66.2356L114.233 66.424C114.105 66.4595 114.043 66.5689 114.046 66.6992L113.979 66.7114L113.782 65.6226L113.849 65.6105C113.896 65.7368 114.004 65.8114 114.142 65.7863L115.11 65.6193ZM114.051 66.7524C114.092 66.8812 114.195 66.9615 114.335 66.9441L115.484 66.8004C115.636 66.7815 115.7 66.7126 115.716 66.5445L115.784 66.536L116.117 67.3215L116.079 67.3749L114.414 67.5828C114.271 67.6008 114.191 67.7121 114.188 67.8503L114.12 67.8588L113.983 66.7609L114.051 66.7524ZM116.676 66.5665C116.879 66.541 117.068 66.6918 117.093 66.8914C117.119 67.095 116.972 67.2836 116.768 67.309C116.565 67.3345 116.376 67.1878 116.351 66.9841C116.326 66.7845 116.472 66.5919 116.676 66.5665ZM114.295 69.0176C114.329 69.172 114.464 69.1959 114.589 69.0996L115.064 68.7287C114.936 68.6556 114.859 68.6102 114.779 68.5691C114.533 68.4422 114.261 68.5237 114.271 68.7572L114.202 68.7635L114.124 67.9061L114.192 67.8998C114.219 68.0185 114.368 68.2391 114.646 68.4035C114.86 68.5293 114.957 68.5769 115.14 68.6732L115.656 68.2702C115.965 68.0317 116.06 67.8775 116.063 67.7722L116.131 67.766L116.244 68.9919L116.176 68.9982C116.139 68.8197 116.012 68.7991 115.861 68.914L115.555 69.1522L115.67 69.2103C115.954 69.3539 116.189 69.3202 116.186 69.1144L116.254 69.1081L116.324 69.8613L116.255 69.8676C116.23 69.7609 116.08 69.5403 115.802 69.3759C115.67 69.2952 115.584 69.2465 115.491 69.2025L114.711 69.8076C114.503 69.9681 114.415 70.1055 114.406 70.2275L114.338 70.2338L114.226 69.0239L114.295 69.0176ZM114.455 71.1126C114.481 71.3256 114.558 71.4175 114.775 71.4155L116.928 71.3955C117.149 71.3934 117.225 71.3002 117.247 71.0867L117.315 71.0861L117.328 72.4821C117.334 73.1298 117.064 73.4985 116.593 73.5028C116.119 73.5072 115.813 73.0595 115.805 72.2669L115.804 72.0899L114.782 72.0994C114.56 72.1014 114.485 72.2027 114.468 72.5006L114.399 72.5013L114.386 71.1133L114.455 71.1126ZM115.908 72.0889L115.91 72.2378C115.914 72.6682 116.176 72.7825 116.55 72.779C117.021 72.7746 117.225 72.6158 117.222 72.3583L117.222 72.302C117.221 72.1773 117.163 72.0773 116.954 72.0792L115.908 72.0889ZM114.474 73.5734C114.493 73.707 114.582 73.8028 114.723 73.808L115.877 73.8503C116.098 73.8584 116.21 73.778 116.215 73.6372L116.283 73.6397L116.423 74.446L116.376 74.4967L115.958 74.4813C116.221 74.6802 116.419 74.8807 116.409 75.138C116.402 75.3431 116.277 75.4552 116.104 75.4489C115.923 75.4423 115.815 75.3095 115.821 75.1647C115.828 74.9758 115.997 74.9538 116.003 74.793C116.006 74.7126 115.954 74.602 115.861 74.4939L114.699 74.4513C114.555 74.446 114.458 74.5431 114.429 74.7997L114.361 74.7972L114.405 73.5709L114.474 73.5734ZM114.198 76.3221C114.253 75.6848 114.685 75.3587 115.318 75.4134C115.979 75.4705 116.373 75.868 116.318 76.5013C116.264 77.1306 115.821 77.4477 115.175 77.3919C114.522 77.3355 114.144 76.9474 114.198 76.3221ZM115.296 76.0899C114.687 76.0373 114.296 76.1166 114.275 76.3611C114.259 76.5535 114.612 76.6649 115.186 76.7144C115.811 76.7684 116.221 76.6988 116.24 76.4704C116.258 76.2619 115.885 76.1408 115.296 76.0899ZM114.006 78.1406C114.055 77.7615 114.289 77.5441 114.756 77.6037L116.045 77.7683L116.07 77.5768L116.13 77.5844C116.19 77.8111 116.372 78.1629 116.574 78.42L116.53 78.4792L116.047 78.4176C116.029 78.5937 116 78.8536 115.988 78.9454L115.88 78.9316C115.89 78.8598 115.932 78.5894 115.96 78.4064L114.85 78.2647C114.443 78.2127 114.312 78.2852 114.289 78.4688C114.277 78.5645 114.313 78.6585 114.381 78.732L114.329 78.7863C114.134 78.668 113.971 78.416 114.006 78.1406ZM113.76 79.7112C113.867 79.0806 114.324 78.7909 114.951 78.8972C115.605 79.0083 115.965 79.4366 115.859 80.0634C115.753 80.6861 115.286 80.9658 114.647 80.8575C114 80.7477 113.655 80.33 113.76 79.7112ZM114.874 79.5697C114.271 79.4674 113.875 79.5145 113.834 79.7564C113.802 79.9468 114.145 80.0867 114.712 80.183C115.331 80.288 115.745 80.2522 115.784 80.0261C115.819 79.8198 115.457 79.6686 114.874 79.5697ZM113.359 81.8102C113.469 81.3154 113.951 80.9074 114.639 81.0603C115.294 81.2061 115.544 81.7316 115.427 82.2618C115.321 82.737 115.045 82.956 114.802 82.9018C114.661 82.8704 114.571 82.7722 114.606 82.6151C114.694 82.2184 115.28 82.5506 115.353 82.2207C115.4 82.0086 115.128 81.8615 114.598 81.7436C113.997 81.61 113.671 81.8138 113.601 82.1319C113.564 82.2968 113.591 82.4347 113.699 82.5783L113.646 82.6324C113.395 82.4282 113.285 82.1441 113.359 81.8102ZM112.89 83.6286C113.058 83.0112 113.541 82.767 114.154 82.9334C114.795 83.1072 115.112 83.5683 114.946 84.1818C114.78 84.7915 114.288 85.0247 113.662 84.8551C113.029 84.6835 112.726 84.2343 112.89 83.6286ZM114.012 83.5953C113.422 83.4352 113.024 83.4439 112.96 83.6807C112.909 83.8671 113.237 84.0396 113.793 84.1902C114.398 84.3544 114.814 84.3588 114.874 84.1375C114.929 83.9356 114.583 83.7501 114.012 83.5953ZM112.733 84.6576C112.715 84.7914 112.775 84.9077 112.909 84.9506L115.055 85.6368C115.201 85.6834 115.288 85.6479 115.373 85.5018L115.438 85.5227L115.41 86.3755L115.354 86.408L112.713 85.5637C112.575 85.5196 112.456 85.5872 112.396 85.7114L112.33 85.6906L112.667 84.6367L112.733 84.6576ZM111.817 87.3475C111.759 87.554 111.795 87.6686 111.996 87.7508L113.988 88.5656C114.193 88.6493 114.299 88.5926 114.402 88.4044L114.465 88.4303L113.937 89.7225C113.692 90.322 113.3 90.5573 112.864 90.3792C112.425 90.1994 112.316 89.6681 112.616 88.9345L112.683 88.7707L111.737 88.3839C111.532 88.3001 111.423 88.3643 111.292 88.6322L111.229 88.6063L111.754 87.3216L111.817 87.3475ZM112.78 88.8103L112.723 88.9481C112.56 89.3465 112.758 89.5535 113.105 89.6951C113.54 89.8733 113.79 89.8058 113.887 89.5674L113.908 89.5153C113.956 89.3999 113.942 89.2854 113.748 89.2062L112.78 88.8103ZM111.398 91.4201C111.713 91.5739 111.876 91.5489 111.957 91.3781C112.007 91.2727 111.997 91.1523 111.963 91.0559L110.756 90.483C110.626 90.4209 110.499 90.4721 110.422 90.587L110.36 90.5577L110.835 89.5582L110.897 89.5875C110.861 89.7178 110.905 89.8411 111.033 89.9015L113.068 90.8677C113.206 90.9333 113.297 90.9099 113.401 90.7764L113.462 90.8057L113.328 91.6327L113.268 91.6573L112.05 91.0793C112.151 91.2878 112.175 91.5752 112.073 91.7897C111.915 92.124 111.6 92.233 111.209 92.0431L110.217 91.563C110.092 91.517 109.978 91.5697 109.904 91.6774L109.843 91.648L110.317 90.6486L110.379 90.6779C110.344 90.8082 110.388 90.9315 110.515 90.9918L111.398 91.4201ZM109.326 92.4845C109.568 92.0347 110.173 91.812 110.729 92.1117C111.359 92.4514 111.455 93.0196 111.209 93.4765C110.993 93.8767 110.544 94.0322 110.112 93.7993L110.081 93.7461L110.589 92.804L110.511 92.7621C109.955 92.4624 109.617 92.6141 109.478 92.8726C109.396 93.0249 109.384 93.2244 109.446 93.3811L109.364 93.4145C109.194 93.1447 109.146 92.8174 109.326 92.4845ZM110.661 92.8477L110.421 93.2939C110.892 93.5388 111.092 93.5233 111.153 93.41C111.218 93.2896 111.128 93.1176 110.661 92.8477ZM108.373 94.1473C108.635 93.7092 109.25 93.5145 109.791 93.8394C110.405 94.2077 110.475 94.7797 110.208 95.2248C109.974 95.6147 109.518 95.7493 109.097 95.4968L109.069 95.4423L109.62 94.5246L109.544 94.479C109.002 94.1541 108.658 94.2901 108.507 94.542C108.418 94.6903 108.397 94.8891 108.451 95.0484L108.368 95.0781C108.211 94.8008 108.178 94.4717 108.373 94.1473ZM109.69 94.5715L109.429 95.0062C109.889 95.2725 110.09 95.2662 110.156 95.1558C110.226 95.0385 110.144 94.8626 109.69 94.5715ZM108.219 96.8932C108.508 97.0914 108.673 97.0907 108.778 96.9336C108.85 96.8267 108.851 96.6872 108.821 96.58L107.735 95.8521C107.615 95.7715 107.482 95.8035 107.389 95.906L107.332 95.8679L107.948 94.9488L108.005 94.9868C107.951 95.1106 107.977 95.239 108.094 95.3173L109.053 95.9601C109.237 96.0833 109.374 96.0736 109.452 95.9566L109.509 95.9947L109.204 96.7539L109.138 96.7727L108.904 96.6159C108.986 96.8404 108.972 97.1506 108.833 97.3578C108.625 97.6686 108.313 97.7359 107.941 97.4818L107.03 96.8614C106.913 96.7975 106.792 96.833 106.704 96.9287L106.647 96.8906L107.263 95.9715L107.32 96.0096C107.266 96.1333 107.291 96.2617 107.408 96.3401L108.219 96.8932ZM106.671 96.9702C106.612 97.0913 106.631 97.2207 106.745 97.3044L107.676 97.9933C107.799 98.0842 107.893 98.0787 108.021 97.9676L108.076 98.0082L107.775 98.8069L107.711 98.8194L106.362 97.8221C106.245 97.736 106.111 97.7618 106.014 97.8599L105.959 97.8192L106.616 96.9295L106.671 96.9702ZM108.7 98.6453C108.865 98.7672 108.898 99.0068 108.779 99.1686C108.657 99.3336 108.42 99.369 108.255 99.247C108.09 99.125 108.055 98.8887 108.177 98.7237C108.297 98.5619 108.535 98.5233 108.7 98.6453ZM105.278 98.7727C105.195 98.9076 105.276 99.019 105.432 99.0364L106.032 99.1001C105.991 98.9586 105.967 98.8725 105.938 98.787C105.849 98.5247 105.597 98.3947 105.442 98.5689L105.389 98.5261L105.928 97.8551L105.981 97.898C105.918 98.0021 105.872 98.2647 105.958 98.5759C106.024 98.8148 106.061 98.9167 106.125 99.1129L106.776 99.1824C107.164 99.2262 107.34 99.1814 107.415 99.1074L107.468 99.1503L106.697 100.11L106.643 100.067C106.741 99.9131 106.664 99.8099 106.476 99.7874L106.09 99.7462L106.132 99.8676C106.236 100.168 106.429 100.308 106.57 100.158L106.623 100.201L106.149 100.79L106.096 100.747C106.152 100.652 106.198 100.39 106.112 100.079C106.073 99.9284 106.046 99.8341 106.009 99.7378L105.028 99.6298C104.767 99.6008 104.608 99.6381 104.517 99.7196L104.463 99.6767L105.225 98.7299L105.278 98.7727ZM103.939 100.392C103.81 100.564 103.802 100.684 103.96 100.833L105.523 102.313C105.684 102.465 105.803 102.45 105.967 102.312L106.017 102.359L105.057 103.373C104.612 103.843 104.162 103.921 103.82 103.597C103.475 103.271 103.566 102.736 104.11 102.161L104.232 102.032L103.49 101.33C103.329 101.178 103.204 101.198 102.985 101.401L102.935 101.354L103.89 100.345L103.939 100.392ZM104.308 102.104L104.206 102.212C103.91 102.525 104.02 102.789 104.291 103.047C104.633 103.37 104.89 103.397 105.067 103.21L105.106 103.169C105.191 103.079 105.22 102.967 105.068 102.823L104.308 102.104ZM102.245 102.177C102.166 102.287 102.164 102.418 102.262 102.519L103.063 103.35C103.217 103.509 103.353 103.529 103.455 103.431L103.502 103.48L103.043 104.158L102.975 104.162L102.684 103.861C102.735 104.186 102.739 104.468 102.554 104.647C102.406 104.789 102.238 104.783 102.118 104.659C101.992 104.529 102.007 104.358 102.111 104.258C102.247 104.126 102.385 104.228 102.501 104.117C102.558 104.061 102.597 103.945 102.606 103.803L101.798 102.966C101.698 102.862 101.561 102.865 101.362 103.029L101.314 102.98L102.198 102.128L102.245 102.177ZM100.139 103.965C100.621 103.544 101.158 103.61 101.576 104.089C102.013 104.589 102.02 105.148 101.541 105.566C101.065 105.981 100.526 105.902 100.1 105.414C99.669 104.92 99.666 104.378 100.139 103.965ZM101.091 104.56C100.689 104.099 100.352 103.886 100.168 104.047C100.022 104.174 100.199 104.5 100.578 104.933C100.99 105.406 101.334 105.64 101.507 105.49C101.664 105.352 101.48 105.006 101.091 104.56ZM98.737 105.139C99.0359 104.901 99.3557 104.908 99.6491 105.276L100.459 106.292L100.61 106.172L100.648 106.219C100.533 106.424 100.419 106.803 100.385 107.128L100.312 107.14L100.009 106.76C99.8728 106.873 99.6708 107.039 99.5985 107.097L99.5307 107.012C99.5874 106.967 99.8063 106.803 99.9535 106.69L99.2562 105.816C99.0003 105.495 98.8559 105.456 98.7112 105.571C98.6357 105.631 98.5966 105.724 98.5939 105.824L98.5191 105.827C98.4611 105.606 98.52 105.312 98.737 105.139ZM97.4683 106.097C97.9832 105.718 98.5134 105.827 98.8906 106.338C99.2845 106.873 99.2461 107.431 98.7344 107.808C98.226 108.183 97.6951 108.059 97.3107 107.538C96.9216 107.01 96.9631 106.47 97.4683 106.097ZM98.368 106.769C98.0051 106.276 97.6876 106.036 97.4901 106.181C97.3347 106.296 97.4847 106.635 97.8261 107.098C98.1986 107.603 98.5215 107.865 98.7061 107.729C98.8745 107.605 98.7189 107.245 98.368 106.769ZM95.7225 107.329C96.1453 107.05 96.7756 107.091 97.1642 107.678C97.535 108.238 97.3501 108.79 96.8972 109.09C96.4912 109.358 96.1409 109.325 96.0033 109.117C95.9233 108.996 95.9271 108.863 96.0613 108.775C96.4002 108.55 96.5911 109.196 96.8729 109.009C97.0541 108.889 96.9602 108.595 96.6605 108.142C96.3207 107.628 95.945 107.549 95.6732 107.729C95.5323 107.822 95.456 107.94 95.4342 108.119L95.3583 108.121C95.3192 107.799 95.4373 107.518 95.7225 107.329ZM94.1226 108.312C94.672 107.984 95.189 108.144 95.5147 108.69C95.8547 109.261 95.7622 109.812 95.2162 110.138C94.6738 110.461 94.1574 110.287 93.8256 109.731C93.4897 109.167 93.5835 108.634 94.1226 108.312ZM94.9527 109.068C94.6394 108.542 94.3469 108.272 94.1361 108.398C93.9703 108.497 94.0867 108.849 94.3814 109.343C94.7029 109.882 94.9988 110.174 95.1958 110.056C95.3754 109.949 95.2557 109.576 94.9527 109.068ZM93.2948 108.943C93.1897 109.027 93.1526 109.153 93.2199 109.276L94.2963 111.256C94.3693 111.39 94.4569 111.425 94.6191 111.378L94.6518 111.438L94.0422 112.035L93.9787 112.019L92.6544 109.584C92.5852 109.457 92.4526 109.423 92.3228 109.471L92.2901 109.411L93.2621 108.882L93.2948 108.943ZM90.7716 110.25C90.586 110.357 90.5319 110.465 90.619 110.664L91.4826 112.635C91.5714 112.838 91.6868 112.871 91.8918 112.807L91.9193 112.87L90.6405 113.43C90.0472 113.69 89.602 113.586 89.4132 113.155C89.2227 112.72 89.5144 112.263 90.2404 111.945L90.4026 111.874L89.9925 110.938C89.9038 110.735 89.781 110.706 89.5002 110.807L89.4727 110.744L90.7442 110.187L90.7716 110.25ZM90.4445 111.97L90.3082 112.03C89.9138 112.202 89.9119 112.489 90.062 112.831C90.2509 113.263 90.4769 113.388 90.7128 113.284L90.7644 113.262C90.8786 113.212 90.9481 113.12 90.8642 112.928L90.4445 111.97ZM87.6347 112.882C87.7533 113.211 87.8878 113.307 88.0649 113.241C88.1743 113.2 88.2512 113.107 88.2937 113.014L87.8268 111.762C87.7762 111.627 87.6496 111.575 87.5144 111.604L87.4905 111.54L88.5271 111.153L88.551 111.217C88.4351 111.286 88.3807 111.405 88.4299 111.537L89.2175 113.648C89.2709 113.792 89.3528 113.838 89.52 113.815L89.5439 113.879L88.8716 114.379L88.8109 114.354L88.3397 113.091C88.2673 113.311 88.0842 113.534 87.8618 113.617C87.515 113.747 87.2134 113.606 87.0653 113.197L86.6875 112.162C86.6298 112.042 86.5112 112 86.3836 112.026L86.3596 111.962L87.3963 111.575L87.4202 111.639C87.3042 111.708 87.2499 111.827 87.2991 111.959L87.6347 112.882Z" fill="black"/>
<circle cx="72.9522" cy="72.7383" r="35.4273" transform="rotate(-17.049 72.9522 72.7383)" stroke="black" stroke-width="2.23516"/>
<circle cx="72.9521" cy="72.7387" r="21.3458" transform="rotate(-17.049 72.9521 72.7387)" stroke="black" stroke-width="2.23516"/>
<mask id="path-6-outside-1_63_5" maskUnits="userSpaceOnUse" x="42.1823" y="38.6104" width="60.7668" height="65.4069" fill="black">
<rect fill="white" x="42.1823" y="38.6104" width="60.7668" height="65.4069"/>
<path fill-rule="evenodd" clip-rule="evenodd" d="M89.9706 71.1451C91.9032 65.2088 90.937 59.8137 87.7734 54.7042C88.0141 57.2991 87.6292 59.4055 86.5809 61.1078C86.2795 56.0205 84.1638 52.5132 81.134 50.1149C81.6977 51.7155 82.0587 53.1757 81.9028 54.5378C79.5716 51.7738 77.0783 49.8357 74.478 48.4437C74.3763 48.3898 74.2745 48.336 74.1727 48.2822C74.3002 48.4147 74.4266 48.5491 74.5517 48.6839C76.0981 50.3651 77.3929 52.3074 78.4633 54.4886C77.5487 53.7099 76.6222 53.0091 75.6868 52.3853C73.0392 50.6166 70.3119 49.4523 67.5186 48.806C71.7406 51.4169 74.5064 55.3402 76.5616 59.9036C75.3632 58.6801 74.1315 57.5348 72.7714 56.684C78.848 63.1437 80.6081 71.0414 76.8292 75.5571C76.6475 75.7736 76.4424 75.9184 76.2229 76.0167C75.1242 74.5724 75.8499 72.0909 73.9032 70.8031C74.7591 70.6318 75.3512 70.3636 75.7155 69.7216C74.6076 69.9608 73.58 69.8956 72.4225 69.4728C71.6055 69.1745 70.8996 69.4961 70.5286 69.899C69.5369 69.9155 68.8663 70.1398 68.7449 70.7398C69.1839 70.3872 69.8533 71.1189 70.5641 70.9751C71.2664 71.7941 71.7751 73.4023 71.6119 75.6557C71.4732 77.5691 71.9783 79.2263 72.4861 80.6848C71.8868 79.6255 71.4222 78.5047 71.1061 77.3122C65.4443 75.6932 62.4766 68.1642 63.8857 59.409C63.2365 60.876 62.8586 62.5148 62.5522 64.1998C61.6981 59.2666 61.7889 54.4672 63.8214 49.9382C61.8692 52.0398 60.2654 54.5339 59.0641 57.4814C58.6392 58.5224 58.2663 59.6216 57.944 60.7796C57.6076 58.3733 57.5909 56.0391 57.929 53.78C57.957 53.5983 57.9864 53.4161 58.0176 53.2349C57.9631 53.3351 57.909 53.4367 57.8553 53.5398C56.4829 56.1516 55.5047 59.1543 55.1239 62.75C54.2312 61.7095 53.7115 60.2979 53.281 58.6565C52.118 62.3405 52.3308 66.4314 54.9333 70.813C53.1109 69.9912 51.6112 68.4627 50.3559 66.1789C50.5988 72.1825 52.8237 77.1932 57.7534 81.0251C59.4333 80.7403 60.9541 80.2198 62.5387 79.4524C61.3946 80.4481 60.1388 81.0744 58.5212 81.5828C59.685 82.2789 60.9126 82.8548 62.2234 83.277C63.2177 82.3845 64.24 81.6133 65.2828 80.9596C64.475 81.7376 63.654 82.594 62.9897 83.4656C64.1336 83.8848 65.3572 84.1342 66.6047 84.2542C66.7486 83.9751 66.8877 83.7159 67.0335 83.4687C67.3938 82.8541 67.7918 82.3069 68.3915 81.6792C67.8762 82.5871 67.4776 83.3649 67.258 84.2007C67.2466 84.2444 67.2352 84.2881 67.2257 84.3328L67.3031 84.3477C68.2767 84.53 69.3998 84.3402 70.2588 84.6087C70.4287 83.6969 70.63 82.8265 71.0643 81.8769C70.8016 82.8249 70.672 83.7877 70.7412 84.7715C71.5689 85.0743 72.5936 85.762 73.7671 86.7427C73.3076 85.5678 73.0846 84.3807 72.9879 83.1857C74.3129 88.1029 77.9071 90.744 79.3907 94.5812L80.0877 96.3837L79.6543 94.5004C78.7303 90.4916 80.2259 86.2896 78.5679 81.4745C79.1573 82.5168 79.6371 83.6267 79.9167 84.8568C80.3391 83.3883 80.8022 82.2443 81.3173 81.5282C80.8245 80.6743 80.1775 79.9496 79.4271 79.3123C80.3186 79.8538 80.9732 80.4617 81.6256 81.1229C82.1878 80.4186 83.2223 79.9451 83.9268 79.2498L83.9825 79.194C83.95 79.1638 83.9156 79.1326 83.8821 79.1042C83.2322 78.5366 82.4642 78.115 81.5299 77.6516C82.3784 77.8352 83.0148 78.0652 83.6576 78.3721C83.9175 78.4966 84.1775 78.6317 84.4531 78.7822C85.4189 77.9836 86.2923 77.091 87.0032 76.103C85.9644 75.7537 84.8059 75.5044 83.6993 75.3134C84.9312 75.2711 86.2096 75.3352 87.532 75.5172C88.3807 74.4328 89.0744 73.2676 89.6478 72.0388C88.0234 72.5246 86.6342 72.711 85.1268 72.527C86.8691 72.2741 88.4203 71.8525 89.971 71.1465L89.9706 71.1451ZM65.7329 79.2274C63.8951 78.7041 62.0235 77.7875 60.402 76.2561C61.6834 76.6734 62.8759 76.9123 63.9243 76.9695C61.1662 75.3105 59.081 72.9442 57.7893 70.0516C58.4916 70.5722 59.1538 70.932 59.7906 71.1634C58.8293 69.7373 58.1924 68.1004 57.9282 66.1621C58.5702 66.8048 59.3694 67.4596 60.0378 67.9056C59.5987 65.5385 59.5471 62.8578 59.9491 60.3673C60.1954 58.8399 60.6123 57.3839 61.2139 56.1155C60.6694 58.5507 60.6299 61.1465 60.9741 63.7097C61.3871 66.7852 62.3501 69.8142 63.6501 72.4661C62.6827 71.566 62.218 70.6169 61.5783 69.3751C61.8896 71.1382 62.8951 72.9157 64.3256 74.6385C65.2602 75.7651 66.3782 76.868 67.6016 77.9307C66.8671 78.0075 66.2327 78.0366 65.3532 77.9894L65.2825 77.9863L65.3641 78.0247C67.0056 78.8078 68.9926 79.4384 71.0443 79.8251C69.5227 79.8882 67.6456 79.7727 65.7333 79.2288L65.7329 79.2274ZM85.1038 68.6809C84.6196 70.858 83.584 72.6676 82.3551 74.1299C81.0755 75.6542 79.5859 76.8021 78.2906 77.6029C79.7742 76.1321 81.0646 74.4963 81.9863 72.9272L82.0323 72.8497L81.9755 72.8919C81.2737 73.4241 80.732 73.7556 80.0807 74.1038C80.4981 72.5379 80.8042 70.9983 80.9479 69.541C81.1666 67.3124 81.0028 65.2768 80.2722 63.6424C80.4386 65.0293 80.5859 66.0757 80.2894 67.3634C79.881 64.4395 78.9804 61.3914 77.5982 58.6132C76.4463 56.2977 74.9588 54.1717 73.1422 52.459C74.3515 53.1721 75.513 54.144 76.5732 55.2708C78.3023 57.1077 79.762 59.3551 80.7244 61.5632C81.0269 60.821 81.3226 59.8289 81.4939 58.9368C82.3604 60.6904 82.7521 62.4025 82.7555 64.1224C83.1535 63.5751 83.5002 62.906 83.7894 62.0798C84.341 65.1978 83.9409 68.3263 82.5888 71.2473C83.4259 70.6102 84.2799 69.7453 85.1056 68.6819L85.1038 68.6809Z"/>
</mask>
<path fill-rule="evenodd" clip-rule="evenodd" d="M89.9706 71.1451C91.9032 65.2088 90.937 59.8137 87.7734 54.7042C88.0141 57.2991 87.6292 59.4055 86.5809 61.1078C86.2795 56.0205 84.1638 52.5132 81.134 50.1149C81.6977 51.7155 82.0587 53.1757 81.9028 54.5378C79.5716 51.7738 77.0783 49.8357 74.478 48.4437C74.3763 48.3898 74.2745 48.336 74.1727 48.2822C74.3002 48.4147 74.4266 48.5491 74.5517 48.6839C76.0981 50.3651 77.3929 52.3074 78.4633 54.4886C77.5487 53.7099 76.6222 53.0091 75.6868 52.3853C73.0392 50.6166 70.3119 49.4523 67.5186 48.806C71.7406 51.4169 74.5064 55.3402 76.5616 59.9036C75.3632 58.6801 74.1315 57.5348 72.7714 56.684C78.848 63.1437 80.6081 71.0414 76.8292 75.5571C76.6475 75.7736 76.4424 75.9184 76.2229 76.0167C75.1242 74.5724 75.8499 72.0909 73.9032 70.8031C74.7591 70.6318 75.3512 70.3636 75.7155 69.7216C74.6076 69.9608 73.58 69.8956 72.4225 69.4728C71.6055 69.1745 70.8996 69.4961 70.5286 69.899C69.5369 69.9155 68.8663 70.1398 68.7449 70.7398C69.1839 70.3872 69.8533 71.1189 70.5641 70.9751C71.2664 71.7941 71.7751 73.4023 71.6119 75.6557C71.4732 77.5691 71.9783 79.2263 72.4861 80.6848C71.8868 79.6255 71.4222 78.5047 71.1061 77.3122C65.4443 75.6932 62.4766 68.1642 63.8857 59.409C63.2365 60.876 62.8586 62.5148 62.5522 64.1998C61.6981 59.2666 61.7889 54.4672 63.8214 49.9382C61.8692 52.0398 60.2654 54.5339 59.0641 57.4814C58.6392 58.5224 58.2663 59.6216 57.944 60.7796C57.6076 58.3733 57.5909 56.0391 57.929 53.78C57.957 53.5983 57.9864 53.4161 58.0176 53.2349C57.9631 53.3351 57.909 53.4367 57.8553 53.5398C56.4829 56.1516 55.5047 59.1543 55.1239 62.75C54.2312 61.7095 53.7115 60.2979 53.281 58.6565C52.118 62.3405 52.3308 66.4314 54.9333 70.813C53.1109 69.9912 51.6112 68.4627 50.3559 66.1789C50.5988 72.1825 52.8237 77.1932 57.7534 81.0251C59.4333 80.7403 60.9541 80.2198 62.5387 79.4524C61.3946 80.4481 60.1388 81.0744 58.5212 81.5828C59.685 82.2789 60.9126 82.8548 62.2234 83.277C63.2177 82.3845 64.24 81.6133 65.2828 80.9596C64.475 81.7376 63.654 82.594 62.9897 83.4656C64.1336 83.8848 65.3572 84.1342 66.6047 84.2542C66.7486 83.9751 66.8877 83.7159 67.0335 83.4687C67.3938 82.8541 67.7918 82.3069 68.3915 81.6792C67.8762 82.5871 67.4776 83.3649 67.258 84.2007C67.2466 84.2444 67.2352 84.2881 67.2257 84.3328L67.3031 84.3477C68.2767 84.53 69.3998 84.3402 70.2588 84.6087C70.4287 83.6969 70.63 82.8265 71.0643 81.8769C70.8016 82.8249 70.672 83.7877 70.7412 84.7715C71.5689 85.0743 72.5936 85.762 73.7671 86.7427C73.3076 85.5678 73.0846 84.3807 72.9879 83.1857C74.3129 88.1029 77.9071 90.744 79.3907 94.5812L80.0877 96.3837L79.6543 94.5004C78.7303 90.4916 80.2259 86.2896 78.5679 81.4745C79.1573 82.5168 79.6371 83.6267 79.9167 84.8568C80.3391 83.3883 80.8022 82.2443 81.3173 81.5282C80.8245 80.6743 80.1775 79.9496 79.4271 79.3123C80.3186 79.8538 80.9732 80.4617 81.6256 81.1229C82.1878 80.4186 83.2223 79.9451 83.9268 79.2498L83.9825 79.194C83.95 79.1638 83.9156 79.1326 83.8821 79.1042C83.2322 78.5366 82.4642 78.115 81.5299 77.6516C82.3784 77.8352 83.0148 78.0652 83.6576 78.3721C83.9175 78.4966 84.1775 78.6317 84.4531 78.7822C85.4189 77.9836 86.2923 77.091 87.0032 76.103C85.9644 75.7537 84.8059 75.5044 83.6993 75.3134C84.9312 75.2711 86.2096 75.3352 87.532 75.5172C88.3807 74.4328 89.0744 73.2676 89.6478 72.0388C88.0234 72.5246 86.6342 72.711 85.1268 72.527C86.8691 72.2741 88.4203 71.8525 89.971 71.1465L89.9706 71.1451ZM65.7329 79.2274C63.8951 78.7041 62.0235 77.7875 60.402 76.2561C61.6834 76.6734 62.8759 76.9123 63.9243 76.9695C61.1662 75.3105 59.081 72.9442 57.7893 70.0516C58.4916 70.5722 59.1538 70.932 59.7906 71.1634C58.8293 69.7373 58.1924 68.1004 57.9282 66.1621C58.5702 66.8048 59.3694 67.4596 60.0378 67.9056C59.5987 65.5385 59.5471 62.8578 59.9491 60.3673C60.1954 58.8399 60.6123 57.3839 61.2139 56.1155C60.6694 58.5507 60.6299 61.1465 60.9741 63.7097C61.3871 66.7852 62.3501 69.8142 63.6501 72.4661C62.6827 71.566 62.218 70.6169 61.5783 69.3751C61.8896 71.1382 62.8951 72.9157 64.3256 74.6385C65.2602 75.7651 66.3782 76.868 67.6016 77.9307C66.8671 78.0075 66.2327 78.0366 65.3532 77.9894L65.2825 77.9863L65.3641 78.0247C67.0056 78.8078 68.9926 79.4384 71.0443 79.8251C69.5227 79.8882 67.6456 79.7727 65.7333 79.2288L65.7329 79.2274ZM85.1038 68.6809C84.6196 70.858 83.584 72.6676 82.3551 74.1299C81.0755 75.6542 79.5859 76.8021 78.2906 77.6029C79.7742 76.1321 81.0646 74.4963 81.9863 72.9272L82.0323 72.8497L81.9755 72.8919C81.2737 73.4241 80.732 73.7556 80.0807 74.1038C80.4981 72.5379 80.8042 70.9983 80.9479 69.541C81.1666 67.3124 81.0028 65.2768 80.2722 63.6424C80.4386 65.0293 80.5859 66.0757 80.2894 67.3634C79.881 64.4395 78.9804 61.3914 77.5982 58.6132C76.4463 56.2977 74.9588 54.1717 73.1422 52.459C74.3515 53.1721 75.513 54.144 76.5732 55.2708C78.3023 57.1077 79.762 59.3551 80.7244 61.5632C81.0269 60.821 81.3226 59.8289 81.4939 58.9368C82.3604 60.6904 82.7521 62.4025 82.7555 64.1224C83.1535 63.5751 83.5002 62.906 83.7894 62.0798C84.341 65.1978 83.9409 68.3263 82.5888 71.2473C83.4259 70.6102 84.2799 69.7453 85.1056 68.6819L85.1038 68.6809Z" fill="black"/>
<path fill-rule="evenodd" clip-rule="evenodd" d="M89.9706 71.1451C91.9032 65.2088 90.937 59.8137 87.7734 54.7042C88.0141 57.2991 87.6292 59.4055 86.5809 61.1078C86.2795 56.0205 84.1638 52.5132 81.134 50.1149C81.6977 51.7155 82.0587 53.1757 81.9028 54.5378C79.5716 51.7738 77.0783 49.8357 74.478 48.4437C74.3763 48.3898 74.2745 48.336 74.1727 48.2822C74.3002 48.4147 74.4266 48.5491 74.5517 48.6839C76.0981 50.3651 77.3929 52.3074 78.4633 54.4886C77.5487 53.7099 76.6222 53.0091 75.6868 52.3853C73.0392 50.6166 70.3119 49.4523 67.5186 48.806C71.7406 51.4169 74.5064 55.3402 76.5616 59.9036C75.3632 58.6801 74.1315 57.5348 72.7714 56.684C78.848 63.1437 80.6081 71.0414 76.8292 75.5571C76.6475 75.7736 76.4424 75.9184 76.2229 76.0167C75.1242 74.5724 75.8499 72.0909 73.9032 70.8031C74.7591 70.6318 75.3512 70.3636 75.7155 69.7216C74.6076 69.9608 73.58 69.8956 72.4225 69.4728C71.6055 69.1745 70.8996 69.4961 70.5286 69.899C69.5369 69.9155 68.8663 70.1398 68.7449 70.7398C69.1839 70.3872 69.8533 71.1189 70.5641 70.9751C71.2664 71.7941 71.7751 73.4023 71.6119 75.6557C71.4732 77.5691 71.9783 79.2263 72.4861 80.6848C71.8868 79.6255 71.4222 78.5047 71.1061 77.3122C65.4443 75.6932 62.4766 68.1642 63.8857 59.409C63.2365 60.876 62.8586 62.5148 62.5522 64.1998C61.6981 59.2666 61.7889 54.4672 63.8214 49.9382C61.8692 52.0398 60.2654 54.5339 59.0641 57.4814C58.6392 58.5224 58.2663 59.6216 57.944 60.7796C57.6076 58.3733 57.5909 56.0391 57.929 53.78C57.957 53.5983 57.9864 53.4161 58.0176 53.2349C57.9631 53.3351 57.909 53.4367 57.8553 53.5398C56.4829 56.1516 55.5047 59.1543 55.1239 62.75C54.2312 61.7095 53.7115 60.2979 53.281 58.6565C52.118 62.3405 52.3308 66.4314 54.9333 70.813C53.1109 69.9912 51.6112 68.4627 50.3559 66.1789C50.5988 72.1825 52.8237 77.1932 57.7534 81.0251C59.4333 80.7403 60.9541 80.2198 62.5387 79.4524C61.3946 80.4481 60.1388 81.0744 58.5212 81.5828C59.685 82.2789 60.9126 82.8548 62.2234 83.277C63.2177 82.3845 64.24 81.6133 65.2828 80.9596C64.475 81.7376 63.654 82.594 62.9897 83.4656C64.1336 83.8848 65.3572 84.1342 66.6047 84.2542C66.7486 83.9751 66.8877 83.7159 67.0335 83.4687C67.3938 82.8541 67.7918 82.3069 68.3915 81.6792C67.8762 82.5871 67.4776 83.3649 67.258 84.2007C67.2466 84.2444 67.2352 84.2881 67.2257 84.3328L67.3031 84.3477C68.2767 84.53 69.3998 84.3402 70.2588 84.6087C70.4287 83.6969 70.63 82.8265 71.0643 81.8769C70.8016 82.8249 70.672 83.7877 70.7412 84.7715C71.5689 85.0743 72.5936 85.762 73.7671 86.7427C73.3076 85.5678 73.0846 84.3807 72.9879 83.1857C74.3129 88.1029 77.9071 90.744 79.3907 94.5812L80.0877 96.3837L79.6543 94.5004C78.7303 90.4916 80.2259 86.2896 78.5679 81.4745C79.1573 82.5168 79.6371 83.6267 79.9167 84.8568C80.3391 83.3883 80.8022 82.2443 81.3173 81.5282C80.8245 80.6743 80.1775 79.9496 79.4271 79.3123C80.3186 79.8538 80.9732 80.4617 81.6256 81.1229C82.1878 80.4186 83.2223 79.9451 83.9268 79.2498L83.9825 79.194C83.95 79.1638 83.9156 79.1326 83.8821 79.1042C83.2322 78.5366 82.4642 78.115 81.5299 77.6516C82.3784 77.8352 83.0148 78.0652 83.6576 78.3721C83.9175 78.4966 84.1775 78.6317 84.4531 78.7822C85.4189 77.9836 86.2923 77.091 87.0032 76.103C85.9644 75.7537 84.8059 75.5044 83.6993 75.3134C84.9312 75.2711 86.2096 75.3352 87.532 75.5172C88.3807 74.4328 89.0744 73.2676 89.6478 72.0388C88.0234 72.5246 86.6342 72.711 85.1268 72.527C86.8691 72.2741 88.4203 71.8525 89.971 71.1465L89.9706 71.1451ZM65.7329 79.2274C63.8951 78.7041 62.0235 77.7875 60.402 76.2561C61.6834 76.6734 62.8759 76.9123 63.9243 76.9695C61.1662 75.3105 59.081 72.9442 57.7893 70.0516C58.4916 70.5722 59.1538 70.932 59.7906 71.1634C58.8293 69.7373 58.1924 68.1004 57.9282 66.1621C58.5702 66.8048 59.3694 67.4596 60.0378 67.9056C59.5987 65.5385 59.5471 62.8578 59.9491 60.3673C60.1954 58.8399 60.6123 57.3839 61.2139 56.1155C60.6694 58.5507 60.6299 61.1465 60.9741 63.7097C61.3871 66.7852 62.3501 69.8142 63.6501 72.4661C62.6827 71.566 62.218 70.6169 61.5783 69.3751C61.8896 71.1382 62.8951 72.9157 64.3256 74.6385C65.2602 75.7651 66.3782 76.868 67.6016 77.9307C66.8671 78.0075 66.2327 78.0366 65.3532 77.9894L65.2825 77.9863L65.3641 78.0247C67.0056 78.8078 68.9926 79.4384 71.0443 79.8251C69.5227 79.8882 67.6456 79.7727 65.7333 79.2288L65.7329 79.2274ZM85.1038 68.6809C84.6196 70.858 83.584 72.6676 82.3551 74.1299C81.0755 75.6542 79.5859 76.8021 78.2906 77.6029C79.7742 76.1321 81.0646 74.4963 81.9863 72.9272L82.0323 72.8497L81.9755 72.8919C81.2737 73.4241 80.732 73.7556 80.0807 74.1038C80.4981 72.5379 80.8042 70.9983 80.9479 69.541C81.1666 67.3124 81.0028 65.2768 80.2722 63.6424C80.4386 65.0293 80.5859 66.0757 80.2894 67.3634C79.881 64.4395 78.9804 61.3914 77.5982 58.6132C76.4463 56.2977 74.9588 54.1717 73.1422 52.459C74.3515 53.1721 75.513 54.144 76.5732 55.2708C78.3023 57.1077 79.762 59.3551 80.7244 61.5632C81.0269 60.821 81.3226 59.8289 81.4939 58.9368C82.3604 60.6904 82.7521 62.4025 82.7555 64.1224C83.1535 63.5751 83.5002 62.906 83.7894 62.0798C84.341 65.1978 83.9409 68.3263 82.5888 71.2473C83.4259 70.6102 84.2799 69.7453 85.1056 68.6819L85.1038 68.6809Z" stroke="white" stroke-width="4.91735" mask="url(#path-6-outside-1_63_5)"/>
</g>
<defs>
<clipPath id="clip0_63_5">
<rect y="34.2081" width="116.675" height="116.675" rx="58.3377" transform="rotate(-17.049 0 34.2081)" fill="white"/>
</clipPath>
</defs>
</svg>
