<svg width="216" height="122" viewBox="0 0 216 122" fill="none" xmlns="http://www.w3.org/2000/svg">
<rect width="216" height="122" rx="19.8686" fill="url(#paint0_linear_63_16)"/>
<path d="M145.466 32.0956C144.342 30.9349 142.669 30.4661 141.099 30.872L74.5043 48.0956C72.6894 48.565 71.383 50.0639 71.1761 51.914C70.9694 53.7642 71.9129 55.511 73.5798 56.3641L86.3139 62.8795L126.241 44.0699C127.216 43.6105 128.382 43.9276 128.986 44.8152C129.59 45.7031 129.449 46.8955 128.655 47.621L103.014 71.0553L96.9496 88.4265L109.348 80.3779L122.614 92.6283C123.387 93.3422 124.361 93.7505 125.377 93.8146C125.861 93.845 126.354 93.7976 126.839 93.6677C128.344 93.265 129.512 92.1407 129.964 90.6605L146.525 36.4745C146.995 34.9343 146.59 33.2564 145.466 32.0956Z" fill="#F9F9F9"/>
<path d="M89.53 66.1609L92.7231 87.2986L99.0687 69.1213C99.1867 68.7831 99.3873 68.4791 99.6524 68.2368L115.11 54.1104L89.53 66.1609Z" fill="#F9F9F9"/>
<defs>
<linearGradient id="paint0_linear_63_16" x1="108" y1="0" x2="108" y2="122" gradientUnits="userSpaceOnUse">
<stop stop-color="white"/>
<stop offset="1" stop-color="#5CBBF3" stop-opacity="0"/>
</linearGradient>
</defs>
</svg>
